<mxfile host="app.diagrams.net" agent="Mozilla/5.0 (Windows NT 10.0; Win64; x64) AppleWebKit/537.36 (KHTML, like Gecko) Chrome/131.0.0.0 Safari/537.36 Edg/131.0.0.0" version="24.8.8">
  <diagram name="Page-1" id="XhYH1N92N5sIxAhXgNMY">
    <mxGraphModel dx="4830" dy="1011" grid="1" gridSize="10" guides="1" tooltips="1" connect="1" arrows="1" fold="1" page="1" pageScale="1" pageWidth="850" pageHeight="1100" math="0" shadow="0">
      <root>
        <mxCell id="0" />
        <mxCell id="1" parent="0" />
        <mxCell id="zh43gVmN8LmoXnrAG-2s-2" value="&lt;div&gt;OUTPUT&lt;/div&gt;1. ADMIN&lt;div&gt;2. USER&lt;/div&gt;&lt;div&gt;3. EXIT&lt;/div&gt;" style="shape=parallelogram;perimeter=parallelogramPerimeter;whiteSpace=wrap;html=1;fixedSize=1;" parent="1" vertex="1">
          <mxGeometry x="349" y="180" width="120" height="60" as="geometry" />
        </mxCell>
        <mxCell id="zh43gVmN8LmoXnrAG-2s-4" value="" style="endArrow=classic;html=1;rounded=0;" parent="1" edge="1">
          <mxGeometry width="50" height="50" relative="1" as="geometry">
            <mxPoint x="449" y="240" as="sourcePoint" />
            <mxPoint x="479" y="240" as="targetPoint" />
          </mxGeometry>
        </mxCell>
        <mxCell id="zh43gVmN8LmoXnrAG-2s-21" value="" style="edgeStyle=orthogonalEdgeStyle;rounded=0;orthogonalLoop=1;jettySize=auto;html=1;" parent="1" source="zh43gVmN8LmoXnrAG-2s-5" target="zh43gVmN8LmoXnrAG-2s-20" edge="1">
          <mxGeometry relative="1" as="geometry" />
        </mxCell>
        <mxCell id="zh43gVmN8LmoXnrAG-2s-36" value="" style="edgeStyle=orthogonalEdgeStyle;rounded=0;orthogonalLoop=1;jettySize=auto;html=1;" parent="1" source="zh43gVmN8LmoXnrAG-2s-5" target="zh43gVmN8LmoXnrAG-2s-35" edge="1">
          <mxGeometry relative="1" as="geometry" />
        </mxCell>
        <mxCell id="zh43gVmN8LmoXnrAG-2s-5" value="1.ADMIN" style="rhombus;whiteSpace=wrap;html=1;" parent="1" vertex="1">
          <mxGeometry x="370" y="360" width="80" height="80" as="geometry" />
        </mxCell>
        <mxCell id="zh43gVmN8LmoXnrAG-2s-23" value="" style="edgeStyle=orthogonalEdgeStyle;rounded=0;orthogonalLoop=1;jettySize=auto;html=1;" parent="1" source="zh43gVmN8LmoXnrAG-2s-20" target="zh43gVmN8LmoXnrAG-2s-22" edge="1">
          <mxGeometry relative="1" as="geometry" />
        </mxCell>
        <mxCell id="zh43gVmN8LmoXnrAG-2s-20" value="&lt;div&gt;INPUT&lt;/div&gt;username" style="shape=parallelogram;perimeter=parallelogramPerimeter;whiteSpace=wrap;html=1;fixedSize=1;" parent="1" vertex="1">
          <mxGeometry x="510" y="370" width="120" height="60" as="geometry" />
        </mxCell>
        <mxCell id="zh43gVmN8LmoXnrAG-2s-31" value="" style="edgeStyle=orthogonalEdgeStyle;rounded=0;orthogonalLoop=1;jettySize=auto;html=1;" parent="1" source="zh43gVmN8LmoXnrAG-2s-22" target="zh43gVmN8LmoXnrAG-2s-30" edge="1">
          <mxGeometry relative="1" as="geometry" />
        </mxCell>
        <mxCell id="zh43gVmN8LmoXnrAG-2s-22" value="&lt;div&gt;INPUT&lt;/div&gt;password" style="shape=parallelogram;perimeter=parallelogramPerimeter;whiteSpace=wrap;html=1;fixedSize=1;" parent="1" vertex="1">
          <mxGeometry x="710" y="370" width="120" height="60" as="geometry" />
        </mxCell>
        <mxCell id="zh43gVmN8LmoXnrAG-2s-24" value="" style="endArrow=classic;html=1;rounded=0;" parent="1" edge="1">
          <mxGeometry width="50" height="50" relative="1" as="geometry">
            <mxPoint x="490" y="370" as="sourcePoint" />
            <mxPoint x="530" y="370" as="targetPoint" />
          </mxGeometry>
        </mxCell>
        <mxCell id="zh43gVmN8LmoXnrAG-2s-25" value="" style="endArrow=classic;html=1;rounded=0;" parent="1" edge="1">
          <mxGeometry width="50" height="50" relative="1" as="geometry">
            <mxPoint x="690" y="370" as="sourcePoint" />
            <mxPoint x="730" y="370" as="targetPoint" />
          </mxGeometry>
        </mxCell>
        <mxCell id="zh43gVmN8LmoXnrAG-2s-26" value="True" style="text;html=1;align=center;verticalAlign=middle;resizable=0;points=[];autosize=1;strokeColor=none;fillColor=none;" parent="1" vertex="1">
          <mxGeometry x="445" y="368" width="50" height="30" as="geometry" />
        </mxCell>
        <mxCell id="zh43gVmN8LmoXnrAG-2s-34" value="" style="edgeStyle=orthogonalEdgeStyle;rounded=0;orthogonalLoop=1;jettySize=auto;html=1;" parent="1" source="zh43gVmN8LmoXnrAG-2s-30" target="zh43gVmN8LmoXnrAG-2s-32" edge="1">
          <mxGeometry relative="1" as="geometry" />
        </mxCell>
        <mxCell id="zh43gVmN8LmoXnrAG-2s-40" value="" style="edgeStyle=orthogonalEdgeStyle;rounded=0;orthogonalLoop=1;jettySize=auto;html=1;" parent="1" source="zh43gVmN8LmoXnrAG-2s-30" target="zh43gVmN8LmoXnrAG-2s-38" edge="1">
          <mxGeometry relative="1" as="geometry" />
        </mxCell>
        <mxCell id="zh43gVmN8LmoXnrAG-2s-30" value="&lt;font style=&quot;font-size: 10px;&quot;&gt;username&amp;nbsp;&lt;/font&gt;&lt;div&gt;&lt;font style=&quot;font-size: 10px;&quot;&gt;==&amp;nbsp;&amp;nbsp;&lt;/font&gt;&lt;span style=&quot;font-size: 10px; background-color: initial;&quot;&gt;&quot;admin&quot;&lt;/span&gt;&lt;div&gt;&lt;div&gt;&lt;font style=&quot;font-size: 10px;&quot;&gt;and&lt;/font&gt;&lt;/div&gt;&lt;div&gt;&lt;font style=&quot;font-size: 10px;&quot;&gt;password ==&amp;nbsp;&lt;/font&gt;&lt;/div&gt;&lt;div&gt;&lt;font style=&quot;font-size: 10px;&quot;&gt;&quot;admin&quot;&lt;/font&gt;&lt;/div&gt;&lt;/div&gt;&lt;/div&gt;" style="rhombus;whiteSpace=wrap;html=1;" parent="1" vertex="1">
          <mxGeometry x="900" y="342.5" width="120" height="115" as="geometry" />
        </mxCell>
        <mxCell id="VsZHqk0auCdiCt8uDxmq-175" value="" style="edgeStyle=orthogonalEdgeStyle;rounded=0;orthogonalLoop=1;jettySize=auto;html=1;entryX=0.5;entryY=0;entryDx=0;entryDy=0;" parent="1" source="zh43gVmN8LmoXnrAG-2s-32" target="VsZHqk0auCdiCt8uDxmq-3" edge="1">
          <mxGeometry relative="1" as="geometry" />
        </mxCell>
        <mxCell id="zh43gVmN8LmoXnrAG-2s-32" value="&lt;div&gt;&lt;font style=&quot;font-size: 12px;&quot;&gt;OUTPUT&lt;/font&gt;&lt;/div&gt;Menu admin&lt;div&gt;1. Tambah motor&lt;/div&gt;&lt;div&gt;2. Tampilkan daftar&amp;nbsp;&lt;span style=&quot;background-color: initial;&quot;&gt;motor&lt;/span&gt;&lt;/div&gt;&lt;div&gt;3. Update motor&lt;/div&gt;&lt;div&gt;4. Hapus motor&lt;/div&gt;&lt;div&gt;5. Melihat daftar&amp;nbsp;&lt;/div&gt;&lt;div&gt;&lt;span style=&quot;background-color: initial;&quot;&gt;pengunjung&lt;/span&gt;&lt;/div&gt;&lt;div&gt;6. Logout&lt;/div&gt;" style="shape=parallelogram;perimeter=parallelogramPerimeter;whiteSpace=wrap;html=1;fixedSize=1;strokeWidth=2;" parent="1" vertex="1">
          <mxGeometry x="863" y="510" width="194" height="140" as="geometry" />
        </mxCell>
        <mxCell id="zh43gVmN8LmoXnrAG-2s-46" value="" style="edgeStyle=orthogonalEdgeStyle;rounded=0;orthogonalLoop=1;jettySize=auto;html=1;" parent="1" source="zh43gVmN8LmoXnrAG-2s-35" target="zh43gVmN8LmoXnrAG-2s-45" edge="1">
          <mxGeometry relative="1" as="geometry" />
        </mxCell>
        <mxCell id="VsZHqk0auCdiCt8uDxmq-187" value="" style="edgeStyle=orthogonalEdgeStyle;rounded=0;orthogonalLoop=1;jettySize=auto;html=1;" parent="1" source="zh43gVmN8LmoXnrAG-2s-35" target="VsZHqk0auCdiCt8uDxmq-186" edge="1">
          <mxGeometry relative="1" as="geometry" />
        </mxCell>
        <mxCell id="zh43gVmN8LmoXnrAG-2s-35" value="2.USER" style="rhombus;whiteSpace=wrap;html=1;" parent="1" vertex="1">
          <mxGeometry x="210" y="360" width="80" height="80" as="geometry" />
        </mxCell>
        <mxCell id="zh43gVmN8LmoXnrAG-2s-37" value="False" style="text;html=1;align=center;verticalAlign=middle;resizable=0;points=[];autosize=1;strokeColor=none;fillColor=none;" parent="1" vertex="1">
          <mxGeometry x="310" y="370" width="50" height="30" as="geometry" />
        </mxCell>
        <mxCell id="zh43gVmN8LmoXnrAG-2s-38" value="&lt;div&gt;OUTPUT&lt;/div&gt;Login gagal&lt;div&gt;username atau&amp;nbsp;&lt;/div&gt;&lt;div&gt;password salah&lt;/div&gt;" style="shape=parallelogram;perimeter=parallelogramPerimeter;whiteSpace=wrap;html=1;fixedSize=1;strokeWidth=2;" parent="1" vertex="1">
          <mxGeometry x="1080" y="365" width="140" height="70" as="geometry" />
        </mxCell>
        <mxCell id="zh43gVmN8LmoXnrAG-2s-39" value="" style="endArrow=classic;html=1;rounded=0;fontSize=12;startSize=8;endSize=8;curved=1;" parent="1" edge="1">
          <mxGeometry width="50" height="50" relative="1" as="geometry">
            <mxPoint x="1190" y="434.00000000000006" as="sourcePoint" />
            <mxPoint x="1230" y="434.00000000000006" as="targetPoint" />
          </mxGeometry>
        </mxCell>
        <mxCell id="zh43gVmN8LmoXnrAG-2s-41" value="" style="endArrow=classic;html=1;rounded=0;" parent="1" target="zh43gVmN8LmoXnrAG-2s-2" edge="1">
          <mxGeometry width="50" height="50" relative="1" as="geometry">
            <mxPoint x="1159" y="210" as="sourcePoint" />
            <mxPoint x="1199" y="170" as="targetPoint" />
          </mxGeometry>
        </mxCell>
        <mxCell id="zh43gVmN8LmoXnrAG-2s-43" value="" style="endArrow=none;html=1;rounded=0;" parent="1" edge="1">
          <mxGeometry width="50" height="50" relative="1" as="geometry">
            <mxPoint x="1157" y="365" as="sourcePoint" />
            <mxPoint x="1157" y="262" as="targetPoint" />
          </mxGeometry>
        </mxCell>
        <mxCell id="zh43gVmN8LmoXnrAG-2s-49" value="" style="edgeStyle=orthogonalEdgeStyle;rounded=0;orthogonalLoop=1;jettySize=auto;html=1;" parent="1" source="zh43gVmN8LmoXnrAG-2s-45" target="zh43gVmN8LmoXnrAG-2s-48" edge="1">
          <mxGeometry relative="1" as="geometry" />
        </mxCell>
        <mxCell id="zh43gVmN8LmoXnrAG-2s-45" value="&lt;div&gt;OUTPUT&lt;/div&gt;1. REGISTRASI&lt;div&gt;2.LOGIN&lt;/div&gt;&lt;div&gt;3. MENU UTAMA&amp;nbsp;&amp;nbsp;&lt;/div&gt;" style="shape=parallelogram;perimeter=parallelogramPerimeter;whiteSpace=wrap;html=1;fixedSize=1;" parent="1" vertex="1">
          <mxGeometry x="190" y="510" width="120" height="60" as="geometry" />
        </mxCell>
        <mxCell id="zh43gVmN8LmoXnrAG-2s-47" value="" style="endArrow=classic;html=1;rounded=0;" parent="1" edge="1">
          <mxGeometry width="50" height="50" relative="1" as="geometry">
            <mxPoint x="290" y="570" as="sourcePoint" />
            <mxPoint x="320" y="570" as="targetPoint" />
          </mxGeometry>
        </mxCell>
        <mxCell id="zh43gVmN8LmoXnrAG-2s-51" value="" style="edgeStyle=orthogonalEdgeStyle;rounded=0;orthogonalLoop=1;jettySize=auto;html=1;" parent="1" source="zh43gVmN8LmoXnrAG-2s-48" target="zh43gVmN8LmoXnrAG-2s-50" edge="1">
          <mxGeometry relative="1" as="geometry" />
        </mxCell>
        <mxCell id="zh43gVmN8LmoXnrAG-2s-53" value="" style="edgeStyle=orthogonalEdgeStyle;rounded=0;orthogonalLoop=1;jettySize=auto;html=1;" parent="1" source="zh43gVmN8LmoXnrAG-2s-48" target="zh43gVmN8LmoXnrAG-2s-52" edge="1">
          <mxGeometry relative="1" as="geometry" />
        </mxCell>
        <mxCell id="zh43gVmN8LmoXnrAG-2s-48" value="1. Registrasi" style="rhombus;whiteSpace=wrap;html=1;" parent="1" vertex="1">
          <mxGeometry x="210" y="627.5" width="80" height="80" as="geometry" />
        </mxCell>
        <mxCell id="zh43gVmN8LmoXnrAG-2s-81" value="" style="edgeStyle=orthogonalEdgeStyle;rounded=0;orthogonalLoop=1;jettySize=auto;html=1;" parent="1" source="zh43gVmN8LmoXnrAG-2s-50" target="zh43gVmN8LmoXnrAG-2s-77" edge="1">
          <mxGeometry relative="1" as="geometry" />
        </mxCell>
        <mxCell id="zh43gVmN8LmoXnrAG-2s-95" value="" style="edgeStyle=orthogonalEdgeStyle;rounded=0;orthogonalLoop=1;jettySize=auto;html=1;" parent="1" source="zh43gVmN8LmoXnrAG-2s-50" target="zh43gVmN8LmoXnrAG-2s-94" edge="1">
          <mxGeometry relative="1" as="geometry" />
        </mxCell>
        <mxCell id="zh43gVmN8LmoXnrAG-2s-50" value="2. Login" style="rhombus;whiteSpace=wrap;html=1;" parent="1" vertex="1">
          <mxGeometry x="10" y="627.5" width="80" height="80" as="geometry" />
        </mxCell>
        <mxCell id="zh43gVmN8LmoXnrAG-2s-55" value="" style="edgeStyle=orthogonalEdgeStyle;rounded=0;orthogonalLoop=1;jettySize=auto;html=1;" parent="1" source="zh43gVmN8LmoXnrAG-2s-52" target="zh43gVmN8LmoXnrAG-2s-54" edge="1">
          <mxGeometry relative="1" as="geometry" />
        </mxCell>
        <mxCell id="zh43gVmN8LmoXnrAG-2s-52" value="&lt;div&gt;INPUT&lt;/div&gt;username" style="shape=parallelogram;perimeter=parallelogramPerimeter;whiteSpace=wrap;html=1;fixedSize=1;" parent="1" vertex="1">
          <mxGeometry x="190" y="760" width="120" height="60" as="geometry" />
        </mxCell>
        <mxCell id="zh43gVmN8LmoXnrAG-2s-62" value="" style="edgeStyle=orthogonalEdgeStyle;rounded=0;orthogonalLoop=1;jettySize=auto;html=1;" parent="1" source="zh43gVmN8LmoXnrAG-2s-54" target="zh43gVmN8LmoXnrAG-2s-61" edge="1">
          <mxGeometry relative="1" as="geometry" />
        </mxCell>
        <mxCell id="zh43gVmN8LmoXnrAG-2s-54" value="&lt;div&gt;INPUT&lt;/div&gt;password" style="shape=parallelogram;perimeter=parallelogramPerimeter;whiteSpace=wrap;html=1;fixedSize=1;" parent="1" vertex="1">
          <mxGeometry x="190" y="900" width="120" height="60" as="geometry" />
        </mxCell>
        <mxCell id="zh43gVmN8LmoXnrAG-2s-56" value="" style="endArrow=classic;html=1;rounded=0;" parent="1" edge="1">
          <mxGeometry width="50" height="50" relative="1" as="geometry">
            <mxPoint x="180" y="760" as="sourcePoint" />
            <mxPoint x="210" y="760" as="targetPoint" />
          </mxGeometry>
        </mxCell>
        <mxCell id="zh43gVmN8LmoXnrAG-2s-57" value="" style="endArrow=classic;html=1;rounded=0;" parent="1" edge="1">
          <mxGeometry width="50" height="50" relative="1" as="geometry">
            <mxPoint x="180" y="902.5" as="sourcePoint" />
            <mxPoint x="210" y="902.5" as="targetPoint" />
          </mxGeometry>
        </mxCell>
        <mxCell id="zh43gVmN8LmoXnrAG-2s-64" value="" style="edgeStyle=orthogonalEdgeStyle;rounded=0;orthogonalLoop=1;jettySize=auto;html=1;" parent="1" source="zh43gVmN8LmoXnrAG-2s-61" target="zh43gVmN8LmoXnrAG-2s-63" edge="1">
          <mxGeometry relative="1" as="geometry" />
        </mxCell>
        <mxCell id="zh43gVmN8LmoXnrAG-2s-122" value="" style="edgeStyle=orthogonalEdgeStyle;rounded=0;orthogonalLoop=1;jettySize=auto;html=1;entryX=0;entryY=0.5;entryDx=0;entryDy=0;" parent="1" source="zh43gVmN8LmoXnrAG-2s-61" target="zh43gVmN8LmoXnrAG-2s-124" edge="1">
          <mxGeometry relative="1" as="geometry">
            <mxPoint x="360" y="1070" as="targetPoint" />
          </mxGeometry>
        </mxCell>
        <mxCell id="zh43gVmN8LmoXnrAG-2s-61" value="username&lt;div&gt;sudah ada&lt;/div&gt;" style="rhombus;whiteSpace=wrap;html=1;" parent="1" vertex="1">
          <mxGeometry x="210" y="1030" width="80" height="80" as="geometry" />
        </mxCell>
        <mxCell id="zh43gVmN8LmoXnrAG-2s-63" value="&lt;div&gt;OUTPUT&lt;/div&gt;username sudah&lt;div&gt;digunakan&lt;/div&gt;" style="shape=parallelogram;perimeter=parallelogramPerimeter;whiteSpace=wrap;html=1;fixedSize=1;" parent="1" vertex="1">
          <mxGeometry x="190" y="1170" width="120" height="60" as="geometry" />
        </mxCell>
        <mxCell id="zh43gVmN8LmoXnrAG-2s-65" value="&lt;div&gt;OUTPUT&lt;/div&gt;Behasil bergabung" style="shape=parallelogram;perimeter=parallelogramPerimeter;whiteSpace=wrap;html=1;fixedSize=1;" parent="1" vertex="1">
          <mxGeometry x="641.3" y="1039.23" width="120" height="60" as="geometry" />
        </mxCell>
        <mxCell id="zh43gVmN8LmoXnrAG-2s-67" value="" style="endArrow=classic;html=1;rounded=0;" parent="1" edge="1">
          <mxGeometry width="50" height="50" relative="1" as="geometry">
            <mxPoint x="290" y="1230" as="sourcePoint" />
            <mxPoint x="320" y="1230" as="targetPoint" />
          </mxGeometry>
        </mxCell>
        <mxCell id="zh43gVmN8LmoXnrAG-2s-68" value="" style="endArrow=classic;html=1;rounded=0;" parent="1" edge="1">
          <mxGeometry width="50" height="50" relative="1" as="geometry">
            <mxPoint x="741.3" y="1099.23" as="sourcePoint" />
            <mxPoint x="771.3" y="1099.23" as="targetPoint" />
          </mxGeometry>
        </mxCell>
        <mxCell id="zh43gVmN8LmoXnrAG-2s-70" value="" style="endArrow=classic;html=1;rounded=0;" parent="1" edge="1">
          <mxGeometry width="50" height="50" relative="1" as="geometry">
            <mxPoint x="800" y="1200" as="sourcePoint" />
            <mxPoint x="800" y="540" as="targetPoint" />
          </mxGeometry>
        </mxCell>
        <mxCell id="zh43gVmN8LmoXnrAG-2s-71" value="" style="endArrow=classic;html=1;rounded=0;entryX=1;entryY=0.5;entryDx=0;entryDy=0;" parent="1" target="zh43gVmN8LmoXnrAG-2s-45" edge="1">
          <mxGeometry width="50" height="50" relative="1" as="geometry">
            <mxPoint x="800" y="540" as="sourcePoint" />
            <mxPoint x="570" y="490" as="targetPoint" />
          </mxGeometry>
        </mxCell>
        <mxCell id="zh43gVmN8LmoXnrAG-2s-72" value="" style="endArrow=classic;html=1;rounded=0;" parent="1" edge="1">
          <mxGeometry width="50" height="50" relative="1" as="geometry">
            <mxPoint x="750" y="1070" as="sourcePoint" />
            <mxPoint x="800" y="1070" as="targetPoint" />
          </mxGeometry>
        </mxCell>
        <mxCell id="zh43gVmN8LmoXnrAG-2s-73" value="" style="endArrow=classic;html=1;rounded=0;" parent="1" edge="1">
          <mxGeometry width="50" height="50" relative="1" as="geometry">
            <mxPoint x="800" y="1150" as="sourcePoint" />
            <mxPoint x="800" y="1070" as="targetPoint" />
          </mxGeometry>
        </mxCell>
        <mxCell id="zh43gVmN8LmoXnrAG-2s-75" value="True" style="text;html=1;align=center;verticalAlign=middle;resizable=0;points=[];autosize=1;strokeColor=none;fillColor=none;" parent="1" vertex="1">
          <mxGeometry x="240" y="1118" width="50" height="30" as="geometry" />
        </mxCell>
        <mxCell id="zh43gVmN8LmoXnrAG-2s-76" value="" style="edgeStyle=orthogonalEdgeStyle;rounded=0;orthogonalLoop=1;jettySize=auto;html=1;" parent="1" source="zh43gVmN8LmoXnrAG-2s-77" target="zh43gVmN8LmoXnrAG-2s-78" edge="1">
          <mxGeometry relative="1" as="geometry" />
        </mxCell>
        <mxCell id="zh43gVmN8LmoXnrAG-2s-77" value="&lt;div&gt;INPUT&lt;/div&gt;username" style="shape=parallelogram;perimeter=parallelogramPerimeter;whiteSpace=wrap;html=1;fixedSize=1;" parent="1" vertex="1">
          <mxGeometry x="-10" y="760" width="120" height="60" as="geometry" />
        </mxCell>
        <mxCell id="zh43gVmN8LmoXnrAG-2s-85" value="" style="edgeStyle=orthogonalEdgeStyle;rounded=0;orthogonalLoop=1;jettySize=auto;html=1;" parent="1" source="zh43gVmN8LmoXnrAG-2s-78" target="zh43gVmN8LmoXnrAG-2s-84" edge="1">
          <mxGeometry relative="1" as="geometry" />
        </mxCell>
        <mxCell id="zh43gVmN8LmoXnrAG-2s-78" value="&lt;div&gt;INPUT&lt;/div&gt;password" style="shape=parallelogram;perimeter=parallelogramPerimeter;whiteSpace=wrap;html=1;fixedSize=1;" parent="1" vertex="1">
          <mxGeometry x="-10" y="900" width="120" height="60" as="geometry" />
        </mxCell>
        <mxCell id="zh43gVmN8LmoXnrAG-2s-79" value="" style="endArrow=classic;html=1;rounded=0;" parent="1" edge="1">
          <mxGeometry width="50" height="50" relative="1" as="geometry">
            <mxPoint x="-20" y="760" as="sourcePoint" />
            <mxPoint x="10" y="760" as="targetPoint" />
          </mxGeometry>
        </mxCell>
        <mxCell id="zh43gVmN8LmoXnrAG-2s-80" value="" style="endArrow=classic;html=1;rounded=0;" parent="1" edge="1">
          <mxGeometry width="50" height="50" relative="1" as="geometry">
            <mxPoint x="-20" y="902.5" as="sourcePoint" />
            <mxPoint x="10" y="902.5" as="targetPoint" />
          </mxGeometry>
        </mxCell>
        <mxCell id="zh43gVmN8LmoXnrAG-2s-82" value="True" style="text;html=1;align=center;verticalAlign=middle;resizable=0;points=[];autosize=1;strokeColor=none;fillColor=none;" parent="1" vertex="1">
          <mxGeometry x="245" y="708" width="50" height="30" as="geometry" />
        </mxCell>
        <mxCell id="zh43gVmN8LmoXnrAG-2s-83" value="False" style="text;html=1;align=center;verticalAlign=middle;resizable=0;points=[];autosize=1;strokeColor=none;fillColor=none;" parent="1" vertex="1">
          <mxGeometry x="135" y="638" width="50" height="30" as="geometry" />
        </mxCell>
        <mxCell id="zh43gVmN8LmoXnrAG-2s-88" value="" style="edgeStyle=orthogonalEdgeStyle;rounded=0;orthogonalLoop=1;jettySize=auto;html=1;" parent="1" source="zh43gVmN8LmoXnrAG-2s-84" edge="1">
          <mxGeometry relative="1" as="geometry">
            <mxPoint x="49.53846153846143" y="1170" as="targetPoint" />
          </mxGeometry>
        </mxCell>
        <mxCell id="zh43gVmN8LmoXnrAG-2s-133" value="" style="edgeStyle=orthogonalEdgeStyle;rounded=0;orthogonalLoop=1;jettySize=auto;html=1;" parent="1" source="zh43gVmN8LmoXnrAG-2s-84" target="zh43gVmN8LmoXnrAG-2s-132" edge="1">
          <mxGeometry relative="1" as="geometry" />
        </mxCell>
        <mxCell id="zh43gVmN8LmoXnrAG-2s-84" value="&lt;font style=&quot;font-size: 10px;&quot;&gt;&lt;font style=&quot;&quot;&gt;username&lt;/font&gt; dan&lt;/font&gt;&lt;div&gt;&lt;font style=&quot;font-size: 10px;&quot;&gt;password&lt;/font&gt; &lt;font style=&quot;font-size: 10px;&quot;&gt;sama&lt;/font&gt; &lt;font style=&quot;font-size: 10px;&quot;&gt;dengan&lt;/font&gt;&amp;nbsp;&lt;/div&gt;&lt;div&gt;&lt;font style=&quot;font-size: 10px;&quot;&gt;yg&lt;/font&gt;&amp;nbsp;&lt;span style=&quot;background-color: initial;&quot;&gt;&lt;font style=&quot;font-size: 10px;&quot;&gt;ada&lt;/font&gt; &lt;font style=&quot;font-size: 10px;&quot;&gt;di&lt;/font&gt; &lt;font style=&quot;font-size: 10px;&quot;&gt;dalam&lt;/font&gt; &lt;font style=&quot;font-size: 10px;&quot;&gt;daftar&lt;/font&gt; &lt;font style=&quot;font-size: 10px;&quot;&gt;pengguna&lt;/font&gt;&lt;/span&gt;&lt;/div&gt;" style="rhombus;whiteSpace=wrap;html=1;" parent="1" vertex="1">
          <mxGeometry x="-20" y="1030" width="140" height="100" as="geometry" />
        </mxCell>
        <mxCell id="zh43gVmN8LmoXnrAG-2s-91" value="&lt;div&gt;OUTPUT&lt;/div&gt;Login gagal&lt;div&gt;username atau&amp;nbsp;&lt;/div&gt;&lt;div&gt;password salah&lt;/div&gt;" style="shape=parallelogram;perimeter=parallelogramPerimeter;whiteSpace=wrap;html=1;fixedSize=1;strokeWidth=2;" parent="1" vertex="1">
          <mxGeometry x="-25" y="1170" width="140" height="70" as="geometry" />
        </mxCell>
        <mxCell id="zh43gVmN8LmoXnrAG-2s-92" value="" style="endArrow=classic;html=1;rounded=0;fontSize=12;startSize=8;endSize=8;curved=1;" parent="1" edge="1">
          <mxGeometry width="50" height="50" relative="1" as="geometry">
            <mxPoint x="85" y="1240" as="sourcePoint" />
            <mxPoint x="125" y="1240" as="targetPoint" />
          </mxGeometry>
        </mxCell>
        <mxCell id="zh43gVmN8LmoXnrAG-2s-97" value="" style="edgeStyle=orthogonalEdgeStyle;rounded=0;orthogonalLoop=1;jettySize=auto;html=1;" parent="1" source="zh43gVmN8LmoXnrAG-2s-94" target="zh43gVmN8LmoXnrAG-2s-96" edge="1">
          <mxGeometry relative="1" as="geometry" />
        </mxCell>
        <mxCell id="zh43gVmN8LmoXnrAG-2s-94" value="3. Menu&lt;div&gt;utama&lt;/div&gt;" style="rhombus;whiteSpace=wrap;html=1;" parent="1" vertex="1">
          <mxGeometry x="-150" y="627.5" width="80" height="80" as="geometry" />
        </mxCell>
        <mxCell id="zh43gVmN8LmoXnrAG-2s-96" value="&lt;div&gt;OUTPUT&lt;/div&gt;Pilihan tidak valid" style="shape=parallelogram;perimeter=parallelogramPerimeter;whiteSpace=wrap;html=1;fixedSize=1;" parent="1" vertex="1">
          <mxGeometry x="-170" y="508.46" width="120" height="60" as="geometry" />
        </mxCell>
        <mxCell id="zh43gVmN8LmoXnrAG-2s-302" value="" style="edgeStyle=orthogonalEdgeStyle;rounded=0;orthogonalLoop=1;jettySize=auto;html=1;" parent="1" source="zh43gVmN8LmoXnrAG-2s-98" target="zh43gVmN8LmoXnrAG-2s-296" edge="1">
          <mxGeometry relative="1" as="geometry" />
        </mxCell>
        <mxCell id="zh43gVmN8LmoXnrAG-2s-98" value="&lt;div&gt;OUTPUT&lt;/div&gt;Menu member&lt;div&gt;1. Tampilkan daftar&amp;nbsp;&lt;span style=&quot;background-color: initial;&quot;&gt;motor&lt;/span&gt;&lt;/div&gt;&lt;div&gt;2. Menyewa motor&lt;/div&gt;&lt;div&gt;3. Kembalikan motor&lt;/div&gt;&lt;div&gt;4. Lihat riwayat sewa&amp;nbsp; &amp;nbsp;&lt;/div&gt;&lt;div&gt;5. Logout&lt;/div&gt;" style="shape=parallelogram;perimeter=parallelogramPerimeter;whiteSpace=wrap;html=1;fixedSize=1;strokeWidth=2;" parent="1" vertex="1">
          <mxGeometry x="-570" y="1021.75" width="160" height="110" as="geometry" />
        </mxCell>
        <mxCell id="zh43gVmN8LmoXnrAG-2s-99" value="" style="endArrow=classic;html=1;rounded=0;fontSize=12;startSize=8;endSize=8;curved=1;" parent="1" edge="1">
          <mxGeometry width="50" height="50" relative="1" as="geometry">
            <mxPoint x="-440" y="1131.17" as="sourcePoint" />
            <mxPoint x="-400" y="1131.17" as="targetPoint" />
          </mxGeometry>
        </mxCell>
        <mxCell id="zh43gVmN8LmoXnrAG-2s-100" value="" style="endArrow=none;html=1;rounded=0;" parent="1" edge="1">
          <mxGeometry width="50" height="50" relative="1" as="geometry">
            <mxPoint x="50" y="1280" as="sourcePoint" />
            <mxPoint x="50" y="1240" as="targetPoint" />
          </mxGeometry>
        </mxCell>
        <mxCell id="zh43gVmN8LmoXnrAG-2s-101" value="" style="endArrow=classic;html=1;rounded=0;" parent="1" edge="1">
          <mxGeometry width="50" height="50" relative="1" as="geometry">
            <mxPoint x="51" y="1280" as="sourcePoint" />
            <mxPoint x="800" y="1280" as="targetPoint" />
          </mxGeometry>
        </mxCell>
        <mxCell id="zh43gVmN8LmoXnrAG-2s-102" value="" style="endArrow=classic;html=1;rounded=0;" parent="1" edge="1">
          <mxGeometry width="50" height="50" relative="1" as="geometry">
            <mxPoint x="800" y="1280" as="sourcePoint" />
            <mxPoint x="800" y="1200" as="targetPoint" />
          </mxGeometry>
        </mxCell>
        <mxCell id="zh43gVmN8LmoXnrAG-2s-103" value="" style="endArrow=classic;html=1;rounded=0;" parent="1" edge="1">
          <mxGeometry width="50" height="50" relative="1" as="geometry">
            <mxPoint x="300" y="1200" as="sourcePoint" />
            <mxPoint x="800" y="1200" as="targetPoint" />
          </mxGeometry>
        </mxCell>
        <mxCell id="zh43gVmN8LmoXnrAG-2s-104" value="" style="endArrow=classic;html=1;rounded=0;exitX=0;exitY=0.5;exitDx=0;exitDy=0;" parent="1" source="zh43gVmN8LmoXnrAG-2s-94" edge="1">
          <mxGeometry width="50" height="50" relative="1" as="geometry">
            <mxPoint x="-150" y="666" as="sourcePoint" />
            <mxPoint x="-260" y="668" as="targetPoint" />
          </mxGeometry>
        </mxCell>
        <mxCell id="zh43gVmN8LmoXnrAG-2s-105" value="" style="endArrow=classic;html=1;rounded=0;entryX=0;entryY=0.5;entryDx=0;entryDy=0;" parent="1" target="zh43gVmN8LmoXnrAG-2s-2" edge="1">
          <mxGeometry width="50" height="50" relative="1" as="geometry">
            <mxPoint x="-260" y="210" as="sourcePoint" />
            <mxPoint x="-61" y="160" as="targetPoint" />
          </mxGeometry>
        </mxCell>
        <mxCell id="zh43gVmN8LmoXnrAG-2s-106" value="" style="endArrow=classic;html=1;rounded=0;" parent="1" edge="1">
          <mxGeometry width="50" height="50" relative="1" as="geometry">
            <mxPoint x="-80" y="568.46" as="sourcePoint" />
            <mxPoint x="-30" y="568.46" as="targetPoint" />
          </mxGeometry>
        </mxCell>
        <mxCell id="zh43gVmN8LmoXnrAG-2s-107" value="" style="endArrow=classic;html=1;rounded=0;" parent="1" edge="1">
          <mxGeometry width="50" height="50" relative="1" as="geometry">
            <mxPoint x="-260" y="670" as="sourcePoint" />
            <mxPoint x="-260" y="210" as="targetPoint" />
          </mxGeometry>
        </mxCell>
        <mxCell id="zh43gVmN8LmoXnrAG-2s-109" value="False" style="text;html=1;align=center;verticalAlign=middle;resizable=0;points=[];autosize=1;strokeColor=none;fillColor=none;" parent="1" vertex="1">
          <mxGeometry x="-55" y="638" width="50" height="30" as="geometry" />
        </mxCell>
        <mxCell id="zh43gVmN8LmoXnrAG-2s-110" value="False" style="text;html=1;align=center;verticalAlign=middle;resizable=0;points=[];autosize=1;strokeColor=none;fillColor=none;" parent="1" vertex="1">
          <mxGeometry x="-170" y="590" width="50" height="30" as="geometry" />
        </mxCell>
        <mxCell id="zh43gVmN8LmoXnrAG-2s-111" value="True" style="text;html=1;align=center;verticalAlign=middle;resizable=0;points=[];autosize=1;strokeColor=none;fillColor=none;" parent="1" vertex="1">
          <mxGeometry x="-230" y="638" width="50" height="30" as="geometry" />
        </mxCell>
        <mxCell id="zh43gVmN8LmoXnrAG-2s-112" value="True" style="text;html=1;align=center;verticalAlign=middle;resizable=0;points=[];autosize=1;strokeColor=none;fillColor=none;" parent="1" vertex="1">
          <mxGeometry x="50" y="708" width="50" height="30" as="geometry" />
        </mxCell>
        <mxCell id="zh43gVmN8LmoXnrAG-2s-113" value="False" style="text;html=1;align=center;verticalAlign=middle;resizable=0;points=[];autosize=1;strokeColor=none;fillColor=none;" parent="1" vertex="1">
          <mxGeometry x="50" y="1130" width="50" height="30" as="geometry" />
        </mxCell>
        <mxCell id="zh43gVmN8LmoXnrAG-2s-126" value="" style="edgeStyle=orthogonalEdgeStyle;rounded=0;orthogonalLoop=1;jettySize=auto;html=1;" parent="1" source="zh43gVmN8LmoXnrAG-2s-124" target="zh43gVmN8LmoXnrAG-2s-65" edge="1">
          <mxGeometry relative="1" as="geometry" />
        </mxCell>
        <mxCell id="zh43gVmN8LmoXnrAG-2s-124" value="&amp;nbsp;&lt;span style=&quot;background-color: initial;&quot;&gt;bergabung&lt;/span&gt;&lt;div&gt;member&lt;/div&gt;" style="rhombus;whiteSpace=wrap;html=1;" parent="1" vertex="1">
          <mxGeometry x="510" y="1030" width="80" height="80" as="geometry" />
        </mxCell>
        <mxCell id="zh43gVmN8LmoXnrAG-2s-127" value="True" style="text;html=1;align=center;verticalAlign=middle;resizable=0;points=[];autosize=1;strokeColor=none;fillColor=none;" parent="1" vertex="1">
          <mxGeometry x="584" y="1040.5" width="50" height="30" as="geometry" />
        </mxCell>
        <mxCell id="zh43gVmN8LmoXnrAG-2s-129" value="" style="endArrow=classic;html=1;rounded=0;" parent="1" edge="1">
          <mxGeometry width="50" height="50" relative="1" as="geometry">
            <mxPoint x="550" y="1110" as="sourcePoint" />
            <mxPoint x="550" y="1200" as="targetPoint" />
          </mxGeometry>
        </mxCell>
        <mxCell id="zh43gVmN8LmoXnrAG-2s-130" value="" style="endArrow=classic;html=1;rounded=0;" parent="1" edge="1">
          <mxGeometry width="50" height="50" relative="1" as="geometry">
            <mxPoint x="350" y="1200" as="sourcePoint" />
            <mxPoint x="400" y="1200" as="targetPoint" />
          </mxGeometry>
        </mxCell>
        <mxCell id="zh43gVmN8LmoXnrAG-2s-136" value="" style="edgeStyle=orthogonalEdgeStyle;rounded=0;orthogonalLoop=1;jettySize=auto;html=1;" parent="1" source="zh43gVmN8LmoXnrAG-2s-132" edge="1">
          <mxGeometry relative="1" as="geometry">
            <mxPoint x="-424" y="1080" as="targetPoint" />
          </mxGeometry>
        </mxCell>
        <mxCell id="zh43gVmN8LmoXnrAG-2s-146" value="" style="edgeStyle=orthogonalEdgeStyle;rounded=0;orthogonalLoop=1;jettySize=auto;html=1;" parent="1" source="zh43gVmN8LmoXnrAG-2s-132" target="zh43gVmN8LmoXnrAG-2s-142" edge="1">
          <mxGeometry relative="1" as="geometry" />
        </mxCell>
        <mxCell id="zh43gVmN8LmoXnrAG-2s-132" value="username&amp;nbsp;&lt;div&gt;ada di&amp;nbsp;&lt;span style=&quot;background-color: initial;&quot;&gt;daftar&amp;nbsp;&lt;/span&gt;&lt;div&gt;member&lt;/div&gt;&lt;/div&gt;" style="rhombus;whiteSpace=wrap;html=1;" parent="1" vertex="1">
          <mxGeometry x="-284" y="1030" width="100" height="100" as="geometry" />
        </mxCell>
        <mxCell id="zh43gVmN8LmoXnrAG-2s-134" value="False" style="text;html=1;align=center;verticalAlign=middle;resizable=0;points=[];autosize=1;strokeColor=none;fillColor=none;" parent="1" vertex="1">
          <mxGeometry x="545" y="1120" width="50" height="30" as="geometry" />
        </mxCell>
        <mxCell id="zh43gVmN8LmoXnrAG-2s-223" value="" style="edgeStyle=orthogonalEdgeStyle;rounded=0;orthogonalLoop=1;jettySize=auto;html=1;" parent="1" source="zh43gVmN8LmoXnrAG-2s-142" target="zh43gVmN8LmoXnrAG-2s-168" edge="1">
          <mxGeometry relative="1" as="geometry" />
        </mxCell>
        <mxCell id="zh43gVmN8LmoXnrAG-2s-142" value="&lt;div&gt;OUTPUT&lt;/div&gt;Menu user&amp;nbsp;&lt;div&gt;1. Tampilkan daftar&amp;nbsp;&lt;span style=&quot;background-color: initial;&quot;&gt;motor&lt;/span&gt;&lt;/div&gt;&lt;div&gt;2. Menyewa motor&lt;/div&gt;&lt;div&gt;3. Kembalikan motor&amp;nbsp;&lt;/div&gt;&lt;div&gt;4. Lihat riwayat sewa&amp;nbsp;&amp;nbsp;&lt;/div&gt;&lt;div&gt;5. Logout&lt;/div&gt;" style="shape=parallelogram;perimeter=parallelogramPerimeter;whiteSpace=wrap;html=1;fixedSize=1;strokeWidth=2;" parent="1" vertex="1">
          <mxGeometry x="-315" y="1180" width="162" height="110" as="geometry" />
        </mxCell>
        <mxCell id="zh43gVmN8LmoXnrAG-2s-143" value="" style="endArrow=classic;html=1;rounded=0;fontSize=12;startSize=8;endSize=8;curved=1;" parent="1" edge="1">
          <mxGeometry width="50" height="50" relative="1" as="geometry">
            <mxPoint x="-183" y="1290.46" as="sourcePoint" />
            <mxPoint x="-143" y="1290.46" as="targetPoint" />
          </mxGeometry>
        </mxCell>
        <mxCell id="zh43gVmN8LmoXnrAG-2s-147" value="True" style="text;html=1;align=center;verticalAlign=middle;resizable=0;points=[];autosize=1;strokeColor=none;fillColor=none;" parent="1" vertex="1">
          <mxGeometry x="-355" y="1048" width="50" height="30" as="geometry" />
        </mxCell>
        <mxCell id="zh43gVmN8LmoXnrAG-2s-148" value="False" style="text;html=1;align=center;verticalAlign=middle;resizable=0;points=[];autosize=1;strokeColor=none;fillColor=none;" parent="1" vertex="1">
          <mxGeometry x="-234" y="1140" width="50" height="30" as="geometry" />
        </mxCell>
        <mxCell id="zh43gVmN8LmoXnrAG-2s-149" value="True" style="text;html=1;align=center;verticalAlign=middle;resizable=0;points=[];autosize=1;strokeColor=none;fillColor=none;" parent="1" vertex="1">
          <mxGeometry x="-105" y="1048" width="50" height="30" as="geometry" />
        </mxCell>
        <mxCell id="zh43gVmN8LmoXnrAG-2s-166" value="" style="edgeStyle=orthogonalEdgeStyle;rounded=0;orthogonalLoop=1;jettySize=auto;html=1;" parent="1" source="zh43gVmN8LmoXnrAG-2s-168" target="zh43gVmN8LmoXnrAG-2s-180" edge="1">
          <mxGeometry relative="1" as="geometry" />
        </mxCell>
        <mxCell id="zh43gVmN8LmoXnrAG-2s-167" value="" style="edgeStyle=orthogonalEdgeStyle;rounded=0;orthogonalLoop=1;jettySize=auto;html=1;" parent="1" source="zh43gVmN8LmoXnrAG-2s-168" target="zh43gVmN8LmoXnrAG-2s-184" edge="1">
          <mxGeometry relative="1" as="geometry" />
        </mxCell>
        <mxCell id="zh43gVmN8LmoXnrAG-2s-168" value="&lt;div&gt;&lt;br&gt;&lt;/div&gt;1. Tampilkan&lt;div&gt;daftar&lt;/div&gt;&lt;div&gt;motor&lt;/div&gt;" style="rhombus;whiteSpace=wrap;html=1;strokeWidth=2;" parent="1" vertex="1">
          <mxGeometry x="-279" y="1352.25" width="89" height="97.5" as="geometry" />
        </mxCell>
        <mxCell id="zh43gVmN8LmoXnrAG-2s-169" value="True" style="text;html=1;align=center;verticalAlign=middle;resizable=0;points=[];autosize=1;strokeColor=none;fillColor=none;fontSize=16;" parent="1" vertex="1">
          <mxGeometry x="-299" y="1453.5" width="60" height="30" as="geometry" />
        </mxCell>
        <mxCell id="zh43gVmN8LmoXnrAG-2s-170" value="" style="endArrow=none;html=1;rounded=0;fontSize=12;startSize=8;endSize=8;curved=1;" parent="1" edge="1">
          <mxGeometry width="50" height="50" relative="1" as="geometry">
            <mxPoint x="-235.40999999999985" y="1603.5" as="sourcePoint" />
            <mxPoint x="-235.40999999999985" y="1573.5" as="targetPoint" />
          </mxGeometry>
        </mxCell>
        <mxCell id="zh43gVmN8LmoXnrAG-2s-171" value="" style="edgeStyle=none;curved=1;rounded=0;orthogonalLoop=1;jettySize=auto;html=1;fontSize=12;startSize=8;endSize=8;" parent="1" source="zh43gVmN8LmoXnrAG-2s-172" target="zh43gVmN8LmoXnrAG-2s-173" edge="1">
          <mxGeometry relative="1" as="geometry" />
        </mxCell>
        <mxCell id="zh43gVmN8LmoXnrAG-2s-172" value="5. Logout" style="rhombus;whiteSpace=wrap;html=1;strokeWidth=2;" parent="1" vertex="1">
          <mxGeometry x="551.3000000000002" y="1354.33" width="90" height="95" as="geometry" />
        </mxCell>
        <mxCell id="zh43gVmN8LmoXnrAG-2s-173" value="&lt;div&gt;OUTPUT&lt;/div&gt;Pilihan tidak valid" style="shape=parallelogram;perimeter=parallelogramPerimeter;whiteSpace=wrap;html=1;fixedSize=1;strokeWidth=2;" parent="1" vertex="1">
          <mxGeometry x="526.3000000000002" y="1498.0800000000002" width="140" height="70" as="geometry" />
        </mxCell>
        <mxCell id="zh43gVmN8LmoXnrAG-2s-174" value="" style="endArrow=classic;html=1;rounded=0;fontSize=12;startSize=8;endSize=8;curved=1;" parent="1" edge="1">
          <mxGeometry width="50" height="50" relative="1" as="geometry">
            <mxPoint x="641.3000000000002" y="1568.0800000000002" as="sourcePoint" />
            <mxPoint x="681.3000000000002" y="1568.0800000000002" as="targetPoint" />
          </mxGeometry>
        </mxCell>
        <mxCell id="zh43gVmN8LmoXnrAG-2s-175" value="False" style="text;html=1;align=center;verticalAlign=middle;resizable=0;points=[];autosize=1;strokeColor=none;fillColor=none;fontSize=16;" parent="1" vertex="1">
          <mxGeometry x="591.3000000000002" y="1453.0800000000002" width="60" height="30" as="geometry" />
        </mxCell>
        <mxCell id="zh43gVmN8LmoXnrAG-2s-178" value="" style="endArrow=classic;html=1;rounded=0;fontSize=12;startSize=8;endSize=8;curved=1;exitX=0.5;exitY=1;exitDx=0;exitDy=0;" parent="1" source="zh43gVmN8LmoXnrAG-2s-180" edge="1">
          <mxGeometry width="50" height="50" relative="1" as="geometry">
            <mxPoint x="-235" y="1576.5" as="sourcePoint" />
            <mxPoint x="-240" y="2140" as="targetPoint" />
          </mxGeometry>
        </mxCell>
        <mxCell id="zh43gVmN8LmoXnrAG-2s-180" value="&lt;div&gt;OUTPUT&lt;/div&gt;&lt;div&gt;Daftar motor beserta&lt;div&gt;harga sewa/hari dan&amp;nbsp;&lt;/div&gt;&lt;div&gt;status tersedia atau&amp;nbsp;&lt;/div&gt;&lt;div&gt;t&lt;span style=&quot;background-color: initial;&quot;&gt;idak&lt;/span&gt;&lt;/div&gt;&lt;/div&gt;" style="shape=parallelogram;perimeter=parallelogramPerimeter;whiteSpace=wrap;html=1;fixedSize=1;strokeWidth=2;" parent="1" vertex="1">
          <mxGeometry x="-310" y="1498.5" width="150" height="81.5" as="geometry" />
        </mxCell>
        <mxCell id="zh43gVmN8LmoXnrAG-2s-181" value="" style="endArrow=classic;html=1;rounded=0;fontSize=12;startSize=8;endSize=8;curved=1;" parent="1" edge="1">
          <mxGeometry width="50" height="50" relative="1" as="geometry">
            <mxPoint x="-184" y="1579.35" as="sourcePoint" />
            <mxPoint x="-144" y="1579.35" as="targetPoint" />
          </mxGeometry>
        </mxCell>
        <mxCell id="zh43gVmN8LmoXnrAG-2s-182" value="" style="edgeStyle=orthogonalEdgeStyle;rounded=0;orthogonalLoop=1;jettySize=auto;html=1;" parent="1" source="zh43gVmN8LmoXnrAG-2s-184" target="zh43gVmN8LmoXnrAG-2s-186" edge="1">
          <mxGeometry relative="1" as="geometry" />
        </mxCell>
        <mxCell id="dYjNuDE8w0LizR0KFd_e-25" value="" style="edgeStyle=orthogonalEdgeStyle;rounded=0;orthogonalLoop=1;jettySize=auto;html=1;" parent="1" source="zh43gVmN8LmoXnrAG-2s-184" target="dYjNuDE8w0LizR0KFd_e-23" edge="1">
          <mxGeometry relative="1" as="geometry" />
        </mxCell>
        <mxCell id="zh43gVmN8LmoXnrAG-2s-184" value="2. Menyewa&lt;div&gt;motor&lt;/div&gt;" style="rhombus;whiteSpace=wrap;html=1;strokeWidth=2;" parent="1" vertex="1">
          <mxGeometry x="-55" y="1352.25" width="89" height="97.5" as="geometry" />
        </mxCell>
        <mxCell id="dYjNuDE8w0LizR0KFd_e-28" value="" style="edgeStyle=orthogonalEdgeStyle;rounded=0;orthogonalLoop=1;jettySize=auto;html=1;" parent="1" source="zh43gVmN8LmoXnrAG-2s-186" target="dYjNuDE8w0LizR0KFd_e-26" edge="1">
          <mxGeometry relative="1" as="geometry" />
        </mxCell>
        <mxCell id="IRif-jqI3bzSRs5siGLv-10" value="" style="edgeStyle=orthogonalEdgeStyle;rounded=0;orthogonalLoop=1;jettySize=auto;html=1;" parent="1" source="zh43gVmN8LmoXnrAG-2s-186" target="IRif-jqI3bzSRs5siGLv-2" edge="1">
          <mxGeometry relative="1" as="geometry" />
        </mxCell>
        <mxCell id="zh43gVmN8LmoXnrAG-2s-186" value="3. Kembalikan&lt;div&gt;motor&lt;/div&gt;" style="rhombus;whiteSpace=wrap;html=1;strokeWidth=2;" parent="1" vertex="1">
          <mxGeometry x="157.5" y="1350.75" width="105" height="99" as="geometry" />
        </mxCell>
        <mxCell id="zh43gVmN8LmoXnrAG-2s-187" value="True" style="text;html=1;align=center;verticalAlign=middle;resizable=0;points=[];autosize=1;strokeColor=none;fillColor=none;fontSize=16;" parent="1" vertex="1">
          <mxGeometry x="-70.5" y="1455" width="60" height="30" as="geometry" />
        </mxCell>
        <mxCell id="zh43gVmN8LmoXnrAG-2s-188" value="" style="edgeStyle=orthogonalEdgeStyle;rounded=0;orthogonalLoop=1;jettySize=auto;html=1;" parent="1" target="zh43gVmN8LmoXnrAG-2s-192" edge="1">
          <mxGeometry relative="1" as="geometry">
            <mxPoint x="-10.923076923077133" y="1569.17" as="sourcePoint" />
          </mxGeometry>
        </mxCell>
        <mxCell id="VsZHqk0auCdiCt8uDxmq-112" value="" style="edgeStyle=orthogonalEdgeStyle;rounded=0;orthogonalLoop=1;jettySize=auto;html=1;" parent="1" source="zh43gVmN8LmoXnrAG-2s-192" target="VsZHqk0auCdiCt8uDxmq-110" edge="1">
          <mxGeometry relative="1" as="geometry" />
        </mxCell>
        <mxCell id="zh43gVmN8LmoXnrAG-2s-192" value="&lt;div&gt;INPUT&lt;/div&gt;Motor yang ingin&amp;nbsp;&lt;div&gt;disewa&lt;/div&gt;" style="shape=parallelogram;perimeter=parallelogramPerimeter;whiteSpace=wrap;html=1;fixedSize=1;strokeWidth=2;" parent="1" vertex="1">
          <mxGeometry x="-80.5" y="1607.5" width="140" height="65" as="geometry" />
        </mxCell>
        <mxCell id="zh43gVmN8LmoXnrAG-2s-193" value="" style="endArrow=classic;html=1;rounded=0;fontSize=12;startSize=8;endSize=8;curved=1;" parent="1" edge="1">
          <mxGeometry width="50" height="50" relative="1" as="geometry">
            <mxPoint x="-105" y="1617.5" as="sourcePoint" />
            <mxPoint x="-65" y="1617.5" as="targetPoint" />
          </mxGeometry>
        </mxCell>
        <mxCell id="zh43gVmN8LmoXnrAG-2s-194" value="" style="edgeStyle=orthogonalEdgeStyle;rounded=0;orthogonalLoop=1;jettySize=auto;html=1;" parent="1" source="zh43gVmN8LmoXnrAG-2s-195" target="zh43gVmN8LmoXnrAG-2s-198" edge="1">
          <mxGeometry relative="1" as="geometry" />
        </mxCell>
        <mxCell id="zh43gVmN8LmoXnrAG-2s-195" value="&lt;div&gt;INPUT&lt;/div&gt;Durasi sewa(hari)" style="shape=parallelogram;perimeter=parallelogramPerimeter;whiteSpace=wrap;html=1;fixedSize=1;strokeWidth=2;" parent="1" vertex="1">
          <mxGeometry x="-80.5" y="1812.5" width="140" height="65" as="geometry" />
        </mxCell>
        <mxCell id="zh43gVmN8LmoXnrAG-2s-196" value="" style="endArrow=classic;html=1;rounded=0;fontSize=12;startSize=8;endSize=8;curved=1;" parent="1" edge="1">
          <mxGeometry width="50" height="50" relative="1" as="geometry">
            <mxPoint x="-105" y="1820" as="sourcePoint" />
            <mxPoint x="-65" y="1820" as="targetPoint" />
          </mxGeometry>
        </mxCell>
        <mxCell id="zh43gVmN8LmoXnrAG-2s-197" value="" style="edgeStyle=orthogonalEdgeStyle;rounded=0;orthogonalLoop=1;jettySize=auto;html=1;" parent="1" source="zh43gVmN8LmoXnrAG-2s-198" target="zh43gVmN8LmoXnrAG-2s-200" edge="1">
          <mxGeometry relative="1" as="geometry" />
        </mxCell>
        <mxCell id="zh43gVmN8LmoXnrAG-2s-198" value="&lt;div&gt;OUTPUT&lt;/div&gt;Berhasil disewa dan&lt;div&gt;struk sewa&lt;/div&gt;" style="shape=parallelogram;perimeter=parallelogramPerimeter;whiteSpace=wrap;html=1;fixedSize=1;strokeWidth=2;size=20.5;" parent="1" vertex="1">
          <mxGeometry x="-80.5" y="1917.5" width="140" height="65" as="geometry" />
        </mxCell>
        <mxCell id="zh43gVmN8LmoXnrAG-2s-199" value="" style="endArrow=classic;html=1;rounded=0;fontSize=12;startSize=8;endSize=8;curved=1;" parent="1" edge="1">
          <mxGeometry width="50" height="50" relative="1" as="geometry">
            <mxPoint x="34" y="1982.79" as="sourcePoint" />
            <mxPoint x="74" y="1982.79" as="targetPoint" />
          </mxGeometry>
        </mxCell>
        <mxCell id="zh43gVmN8LmoXnrAG-2s-200" value="status motor menjadi tidak tersedia" style="whiteSpace=wrap;html=1;strokeWidth=2;" parent="1" vertex="1">
          <mxGeometry x="-70.5" y="2050" width="120" height="60" as="geometry" />
        </mxCell>
        <mxCell id="zh43gVmN8LmoXnrAG-2s-201" value="True" style="text;html=1;align=center;verticalAlign=middle;resizable=0;points=[];autosize=1;strokeColor=none;fillColor=none;fontSize=16;" parent="1" vertex="1">
          <mxGeometry x="150" y="1453.4999999999998" width="60" height="30" as="geometry" />
        </mxCell>
        <mxCell id="zh43gVmN8LmoXnrAG-2s-202" value="" style="edgeStyle=orthogonalEdgeStyle;rounded=0;orthogonalLoop=1;jettySize=auto;html=1;" parent="1" target="zh43gVmN8LmoXnrAG-2s-206" edge="1">
          <mxGeometry relative="1" as="geometry">
            <mxPoint x="210" y="1570.0900000000001" as="sourcePoint" />
          </mxGeometry>
        </mxCell>
        <mxCell id="VsZHqk0auCdiCt8uDxmq-147" value="" style="edgeStyle=orthogonalEdgeStyle;rounded=0;orthogonalLoop=1;jettySize=auto;html=1;" parent="1" source="zh43gVmN8LmoXnrAG-2s-206" target="VsZHqk0auCdiCt8uDxmq-145" edge="1">
          <mxGeometry relative="1" as="geometry" />
        </mxCell>
        <mxCell id="zh43gVmN8LmoXnrAG-2s-206" value="&lt;div&gt;INPUT&lt;/div&gt;Motor yang&amp;nbsp;&lt;span style=&quot;background-color: initial;&quot;&gt;disewa&lt;/span&gt;" style="shape=parallelogram;perimeter=parallelogramPerimeter;whiteSpace=wrap;html=1;fixedSize=1;strokeWidth=2;" parent="1" vertex="1">
          <mxGeometry x="140.75" y="1606" width="140" height="65" as="geometry" />
        </mxCell>
        <mxCell id="zh43gVmN8LmoXnrAG-2s-207" value="" style="endArrow=classic;html=1;rounded=0;fontSize=12;startSize=8;endSize=8;curved=1;" parent="1" edge="1">
          <mxGeometry width="50" height="50" relative="1" as="geometry">
            <mxPoint x="115" y="1616" as="sourcePoint" />
            <mxPoint x="155" y="1616" as="targetPoint" />
          </mxGeometry>
        </mxCell>
        <mxCell id="zh43gVmN8LmoXnrAG-2s-208" value="" style="edgeStyle=orthogonalEdgeStyle;rounded=0;orthogonalLoop=1;jettySize=auto;html=1;" parent="1" source="zh43gVmN8LmoXnrAG-2s-209" target="zh43gVmN8LmoXnrAG-2s-211" edge="1">
          <mxGeometry relative="1" as="geometry" />
        </mxCell>
        <mxCell id="zh43gVmN8LmoXnrAG-2s-209" value="&lt;div&gt;OUTPUT&lt;/div&gt;Berhasil&amp;nbsp;&lt;div&gt;dikembalikan&lt;/div&gt;" style="shape=parallelogram;perimeter=parallelogramPerimeter;whiteSpace=wrap;html=1;fixedSize=1;strokeWidth=2;" parent="1" vertex="1">
          <mxGeometry x="140.5" y="1972.5" width="140" height="65" as="geometry" />
        </mxCell>
        <mxCell id="zh43gVmN8LmoXnrAG-2s-210" value="" style="endArrow=classic;html=1;rounded=0;fontSize=12;startSize=8;endSize=8;curved=1;" parent="1" edge="1">
          <mxGeometry width="50" height="50" relative="1" as="geometry">
            <mxPoint x="255" y="2037.79" as="sourcePoint" />
            <mxPoint x="295" y="2037.79" as="targetPoint" />
          </mxGeometry>
        </mxCell>
        <mxCell id="zh43gVmN8LmoXnrAG-2s-211" value="status motor menjadi tersedia" style="whiteSpace=wrap;html=1;strokeWidth=2;" parent="1" vertex="1">
          <mxGeometry x="150.75" y="2060" width="120" height="60" as="geometry" />
        </mxCell>
        <mxCell id="zh43gVmN8LmoXnrAG-2s-212" value="False" style="text;html=1;align=center;verticalAlign=middle;resizable=0;points=[];autosize=1;strokeColor=none;fillColor=none;" parent="1" vertex="1">
          <mxGeometry x="-180" y="1371.5" width="50" height="30" as="geometry" />
        </mxCell>
        <mxCell id="zh43gVmN8LmoXnrAG-2s-213" value="False" style="text;html=1;align=center;verticalAlign=middle;resizable=0;points=[];autosize=1;strokeColor=none;fillColor=none;" parent="1" vertex="1">
          <mxGeometry x="50" y="1361.5" width="50" height="30" as="geometry" />
        </mxCell>
        <mxCell id="zh43gVmN8LmoXnrAG-2s-216" value="" style="endArrow=classic;html=1;rounded=0;" parent="1" edge="1">
          <mxGeometry width="50" height="50" relative="1" as="geometry">
            <mxPoint x="-390" y="2140" as="sourcePoint" />
            <mxPoint x="-390" y="1235" as="targetPoint" />
          </mxGeometry>
        </mxCell>
        <mxCell id="zh43gVmN8LmoXnrAG-2s-218" value="" style="endArrow=classic;html=1;rounded=0;exitX=0.5;exitY=1;exitDx=0;exitDy=0;" parent="1" source="zh43gVmN8LmoXnrAG-2s-211" edge="1">
          <mxGeometry width="50" height="50" relative="1" as="geometry">
            <mxPoint x="209.83999999999992" y="1943.5" as="sourcePoint" />
            <mxPoint x="210" y="2143.5" as="targetPoint" />
          </mxGeometry>
        </mxCell>
        <mxCell id="zh43gVmN8LmoXnrAG-2s-219" value="" style="endArrow=classic;html=1;rounded=0;exitX=0.417;exitY=0.966;exitDx=0;exitDy=0;exitPerimeter=0;" parent="1" edge="1" source="zh43gVmN8LmoXnrAG-2s-173">
          <mxGeometry width="50" height="50" relative="1" as="geometry">
            <mxPoint x="585.3899999999999" y="1574.09" as="sourcePoint" />
            <mxPoint x="585" y="2144" as="targetPoint" />
          </mxGeometry>
        </mxCell>
        <mxCell id="zh43gVmN8LmoXnrAG-2s-220" value="" style="endArrow=classic;html=1;rounded=0;" parent="1" edge="1">
          <mxGeometry width="50" height="50" relative="1" as="geometry">
            <mxPoint x="585" y="2144" as="sourcePoint" />
            <mxPoint x="-390" y="2140" as="targetPoint" />
          </mxGeometry>
        </mxCell>
        <mxCell id="zh43gVmN8LmoXnrAG-2s-221" value="" style="endArrow=classic;html=1;rounded=0;" parent="1" edge="1">
          <mxGeometry width="50" height="50" relative="1" as="geometry">
            <mxPoint x="115" y="2142" as="sourcePoint" />
            <mxPoint x="-5" y="2142" as="targetPoint" />
          </mxGeometry>
        </mxCell>
        <mxCell id="zh43gVmN8LmoXnrAG-2s-222" value="" style="endArrow=classic;html=1;rounded=0;" parent="1" edge="1">
          <mxGeometry width="50" height="50" relative="1" as="geometry">
            <mxPoint x="315" y="2142.5" as="sourcePoint" />
            <mxPoint x="215" y="2142.5" as="targetPoint" />
          </mxGeometry>
        </mxCell>
        <mxCell id="zh43gVmN8LmoXnrAG-2s-224" value="" style="endArrow=classic;html=1;rounded=0;entryX=0;entryY=0.5;entryDx=0;entryDy=0;" parent="1" target="zh43gVmN8LmoXnrAG-2s-142" edge="1">
          <mxGeometry width="50" height="50" relative="1" as="geometry">
            <mxPoint x="-390" y="1235" as="sourcePoint" />
            <mxPoint x="-340" y="1190" as="targetPoint" />
          </mxGeometry>
        </mxCell>
        <mxCell id="zh43gVmN8LmoXnrAG-2s-225" value="" style="endArrow=classic;html=1;rounded=0;" parent="1" edge="1">
          <mxGeometry width="50" height="50" relative="1" as="geometry">
            <mxPoint x="-159" y="2141" as="sourcePoint" />
            <mxPoint x="-239" y="2141" as="targetPoint" />
          </mxGeometry>
        </mxCell>
        <mxCell id="zh43gVmN8LmoXnrAG-2s-226" value="" style="endArrow=classic;html=1;rounded=0;exitX=1;exitY=0.5;exitDx=0;exitDy=0;" parent="1" edge="1">
          <mxGeometry width="50" height="50" relative="1" as="geometry">
            <mxPoint x="641.3000000000002" y="1399.83" as="sourcePoint" />
            <mxPoint x="800" y="1398" as="targetPoint" />
          </mxGeometry>
        </mxCell>
        <mxCell id="zh43gVmN8LmoXnrAG-2s-227" value="" style="endArrow=classic;html=1;rounded=0;" parent="1" edge="1">
          <mxGeometry width="50" height="50" relative="1" as="geometry">
            <mxPoint x="800" y="1399.5" as="sourcePoint" />
            <mxPoint x="800" y="1279.5" as="targetPoint" />
          </mxGeometry>
        </mxCell>
        <mxCell id="zh43gVmN8LmoXnrAG-2s-228" value="True" style="text;html=1;align=center;verticalAlign=middle;resizable=0;points=[];autosize=1;strokeColor=none;fillColor=none;" parent="1" vertex="1">
          <mxGeometry x="651.3" y="1361.5" width="50" height="30" as="geometry" />
        </mxCell>
        <mxCell id="zh43gVmN8LmoXnrAG-2s-295" value="" style="edgeStyle=orthogonalEdgeStyle;rounded=0;orthogonalLoop=1;jettySize=auto;html=1;" parent="1" source="zh43gVmN8LmoXnrAG-2s-296" target="zh43gVmN8LmoXnrAG-2s-299" edge="1">
          <mxGeometry relative="1" as="geometry" />
        </mxCell>
        <mxCell id="zh43gVmN8LmoXnrAG-2s-296" value="&lt;div&gt;&lt;br&gt;&lt;/div&gt;1. Tampilkan&lt;div&gt;daftar&lt;/div&gt;&lt;div&gt;motor&lt;/div&gt;" style="rhombus;whiteSpace=wrap;html=1;strokeWidth=2;" parent="1" vertex="1">
          <mxGeometry x="-749" y="1026.75" width="89" height="97.5" as="geometry" />
        </mxCell>
        <mxCell id="zh43gVmN8LmoXnrAG-2s-297" value="True" style="text;html=1;align=center;verticalAlign=middle;resizable=0;points=[];autosize=1;strokeColor=none;fillColor=none;fontSize=16;" parent="1" vertex="1">
          <mxGeometry x="-769" y="1128" width="60" height="30" as="geometry" />
        </mxCell>
        <mxCell id="zh43gVmN8LmoXnrAG-2s-299" value="&lt;div&gt;OUTPUT&lt;/div&gt;Daftar motor beserta&lt;div&gt;harga sewa/hari dan&amp;nbsp;&lt;/div&gt;&lt;div&gt;status tersedia atau&amp;nbsp;&lt;/div&gt;&lt;div&gt;t&lt;span style=&quot;background-color: initial;&quot;&gt;idak&lt;/span&gt;&lt;/div&gt;" style="shape=parallelogram;perimeter=parallelogramPerimeter;whiteSpace=wrap;html=1;fixedSize=1;strokeWidth=2;" parent="1" vertex="1">
          <mxGeometry x="-780" y="1173" width="150" height="77" as="geometry" />
        </mxCell>
        <mxCell id="zh43gVmN8LmoXnrAG-2s-300" value="" style="endArrow=classic;html=1;rounded=0;fontSize=12;startSize=8;endSize=8;curved=1;" parent="1" edge="1">
          <mxGeometry width="50" height="50" relative="1" as="geometry">
            <mxPoint x="-650" y="1250" as="sourcePoint" />
            <mxPoint x="-610" y="1250" as="targetPoint" />
          </mxGeometry>
        </mxCell>
        <mxCell id="dYjNuDE8w0LizR0KFd_e-33" value="" style="edgeStyle=orthogonalEdgeStyle;rounded=0;orthogonalLoop=1;jettySize=auto;html=1;" parent="1" source="zh43gVmN8LmoXnrAG-2s-311" target="dYjNuDE8w0LizR0KFd_e-31" edge="1">
          <mxGeometry relative="1" as="geometry" />
        </mxCell>
        <mxCell id="zh43gVmN8LmoXnrAG-2s-311" value="2. Menyewa&lt;div&gt;motor&lt;/div&gt;" style="rhombus;whiteSpace=wrap;html=1;strokeWidth=2;" parent="1" vertex="1">
          <mxGeometry x="-1019" y="1026.75" width="89" height="97.5" as="geometry" />
        </mxCell>
        <mxCell id="zh43gVmN8LmoXnrAG-2s-312" value="True" style="text;html=1;align=center;verticalAlign=middle;resizable=0;points=[];autosize=1;strokeColor=none;fillColor=none;fontSize=16;" parent="1" vertex="1">
          <mxGeometry x="-1039" y="1128.67" width="60" height="30" as="geometry" />
        </mxCell>
        <mxCell id="VsZHqk0auCdiCt8uDxmq-133" value="" style="edgeStyle=orthogonalEdgeStyle;rounded=0;orthogonalLoop=1;jettySize=auto;html=1;" parent="1" target="VsZHqk0auCdiCt8uDxmq-121" edge="1">
          <mxGeometry relative="1" as="geometry">
            <mxPoint x="-974.9230769230771" y="1243.67" as="sourcePoint" />
          </mxGeometry>
        </mxCell>
        <mxCell id="zh43gVmN8LmoXnrAG-2s-326" value="" style="endArrow=classic;html=1;rounded=0;entryX=1;entryY=0.5;entryDx=0;entryDy=0;" parent="1" target="zh43gVmN8LmoXnrAG-2s-311" edge="1">
          <mxGeometry width="50" height="50" relative="1" as="geometry">
            <mxPoint x="-750" y="1076" as="sourcePoint" />
            <mxPoint x="-700" y="1030" as="targetPoint" />
          </mxGeometry>
        </mxCell>
        <mxCell id="dYjNuDE8w0LizR0KFd_e-36" value="" style="edgeStyle=orthogonalEdgeStyle;rounded=0;orthogonalLoop=1;jettySize=auto;html=1;" parent="1" source="zh43gVmN8LmoXnrAG-2s-328" target="dYjNuDE8w0LizR0KFd_e-34" edge="1">
          <mxGeometry relative="1" as="geometry" />
        </mxCell>
        <mxCell id="zh43gVmN8LmoXnrAG-2s-328" value="3. Kembalikan&lt;div&gt;motor&lt;/div&gt;" style="rhombus;whiteSpace=wrap;html=1;strokeWidth=2;" parent="1" vertex="1">
          <mxGeometry x="-1317.5" y="1026.75" width="105" height="99" as="geometry" />
        </mxCell>
        <mxCell id="zh43gVmN8LmoXnrAG-2s-329" value="True" style="text;html=1;align=center;verticalAlign=middle;resizable=0;points=[];autosize=1;strokeColor=none;fillColor=none;fontSize=16;" parent="1" vertex="1">
          <mxGeometry x="-1325.37" y="1131.7499999999998" width="60" height="30" as="geometry" />
        </mxCell>
        <mxCell id="VsZHqk0auCdiCt8uDxmq-159" value="" style="edgeStyle=orthogonalEdgeStyle;rounded=0;orthogonalLoop=1;jettySize=auto;html=1;entryX=0.5;entryY=0;entryDx=0;entryDy=0;" parent="1" target="lHBYunumNn8EPd7SKue_-25" edge="1">
          <mxGeometry relative="1" as="geometry">
            <mxPoint x="-1264.9230769230771" y="1246.09" as="sourcePoint" />
            <mxPoint x="-1265.4" y="1305.5" as="targetPoint" />
          </mxGeometry>
        </mxCell>
        <mxCell id="zh43gVmN8LmoXnrAG-2s-341" value="" style="endArrow=classic;html=1;rounded=0;entryX=1;entryY=0.5;entryDx=0;entryDy=0;exitX=0;exitY=0.5;exitDx=0;exitDy=0;" parent="1" source="zh43gVmN8LmoXnrAG-2s-311" target="zh43gVmN8LmoXnrAG-2s-328" edge="1">
          <mxGeometry width="50" height="50" relative="1" as="geometry">
            <mxPoint x="-1040" y="1080" as="sourcePoint" />
            <mxPoint x="-990" y="1030" as="targetPoint" />
          </mxGeometry>
        </mxCell>
        <mxCell id="zh43gVmN8LmoXnrAG-2s-342" value="" style="edgeStyle=none;curved=1;rounded=0;orthogonalLoop=1;jettySize=auto;html=1;fontSize=12;startSize=8;endSize=8;" parent="1" source="zh43gVmN8LmoXnrAG-2s-343" target="zh43gVmN8LmoXnrAG-2s-344" edge="1">
          <mxGeometry relative="1" as="geometry" />
        </mxCell>
        <mxCell id="zh43gVmN8LmoXnrAG-2s-343" value="5. Logout" style="rhombus;whiteSpace=wrap;html=1;strokeWidth=2;" parent="1" vertex="1">
          <mxGeometry x="-1770" y="1029.25" width="90" height="95" as="geometry" />
        </mxCell>
        <mxCell id="zh43gVmN8LmoXnrAG-2s-344" value="&lt;div&gt;OUTPUT&lt;/div&gt;Pilihan tidak valid" style="shape=parallelogram;perimeter=parallelogramPerimeter;whiteSpace=wrap;html=1;fixedSize=1;strokeWidth=2;" parent="1" vertex="1">
          <mxGeometry x="-1795" y="1173.0000000000002" width="140" height="70" as="geometry" />
        </mxCell>
        <mxCell id="zh43gVmN8LmoXnrAG-2s-345" value="" style="endArrow=classic;html=1;rounded=0;fontSize=12;startSize=8;endSize=8;curved=1;" parent="1" edge="1">
          <mxGeometry width="50" height="50" relative="1" as="geometry">
            <mxPoint x="-1690" y="1242.4600000000003" as="sourcePoint" />
            <mxPoint x="-1650" y="1242.4600000000003" as="targetPoint" />
          </mxGeometry>
        </mxCell>
        <mxCell id="zh43gVmN8LmoXnrAG-2s-346" value="False" style="text;html=1;align=center;verticalAlign=middle;resizable=0;points=[];autosize=1;strokeColor=none;fillColor=none;fontSize=16;" parent="1" vertex="1">
          <mxGeometry x="-1730" y="1128.0000000000002" width="60" height="30" as="geometry" />
        </mxCell>
        <mxCell id="zh43gVmN8LmoXnrAG-2s-349" value="" style="endArrow=classic;html=1;rounded=0;" parent="1" edge="1">
          <mxGeometry width="50" height="50" relative="1" as="geometry">
            <mxPoint x="-490" y="1800" as="sourcePoint" />
            <mxPoint x="-490" y="1130" as="targetPoint" />
          </mxGeometry>
        </mxCell>
        <mxCell id="zh43gVmN8LmoXnrAG-2s-350" value="" style="endArrow=classic;html=1;rounded=0;" parent="1" edge="1">
          <mxGeometry width="50" height="50" relative="1" as="geometry">
            <mxPoint x="-1726" y="1240" as="sourcePoint" />
            <mxPoint x="-1726" y="1800" as="targetPoint" />
          </mxGeometry>
        </mxCell>
        <mxCell id="zh43gVmN8LmoXnrAG-2s-351" value="" style="endArrow=classic;html=1;rounded=0;" parent="1" edge="1">
          <mxGeometry width="50" height="50" relative="1" as="geometry">
            <mxPoint x="-1720" y="1800" as="sourcePoint" />
            <mxPoint x="-487.77777777777777" y="1800" as="targetPoint" />
          </mxGeometry>
        </mxCell>
        <mxCell id="zh43gVmN8LmoXnrAG-2s-352" value="" style="endArrow=classic;html=1;rounded=0;" parent="1" edge="1">
          <mxGeometry width="50" height="50" relative="1" as="geometry">
            <mxPoint x="-1265" y="1682.5" as="sourcePoint" />
            <mxPoint x="-1264.81" y="1762.5" as="targetPoint" />
          </mxGeometry>
        </mxCell>
        <mxCell id="zh43gVmN8LmoXnrAG-2s-353" value="" style="endArrow=classic;html=1;rounded=0;" parent="1" edge="1">
          <mxGeometry width="50" height="50" relative="1" as="geometry">
            <mxPoint x="-975.06" y="1738" as="sourcePoint" />
            <mxPoint x="-975.06" y="1798" as="targetPoint" />
          </mxGeometry>
        </mxCell>
        <mxCell id="zh43gVmN8LmoXnrAG-2s-354" value="" style="endArrow=classic;html=1;rounded=0;exitX=0.5;exitY=1;exitDx=0;exitDy=0;" parent="1" source="zh43gVmN8LmoXnrAG-2s-299" edge="1">
          <mxGeometry width="50" height="50" relative="1" as="geometry">
            <mxPoint x="-705.33" y="1249.0900000000001" as="sourcePoint" />
            <mxPoint x="-705" y="1799" as="targetPoint" />
          </mxGeometry>
        </mxCell>
        <mxCell id="zh43gVmN8LmoXnrAG-2s-356" value="" style="endArrow=classic;html=1;rounded=0;" parent="1" edge="1">
          <mxGeometry width="50" height="50" relative="1" as="geometry">
            <mxPoint x="-1064" y="1800" as="sourcePoint" />
            <mxPoint x="-974" y="1800" as="targetPoint" />
          </mxGeometry>
        </mxCell>
        <mxCell id="zh43gVmN8LmoXnrAG-2s-357" value="" style="endArrow=classic;html=1;rounded=0;" parent="1" edge="1">
          <mxGeometry width="50" height="50" relative="1" as="geometry">
            <mxPoint x="-777" y="1800" as="sourcePoint" />
            <mxPoint x="-707" y="1800" as="targetPoint" />
          </mxGeometry>
        </mxCell>
        <mxCell id="zh43gVmN8LmoXnrAG-2s-358" value="" style="endArrow=classic;html=1;rounded=0;" parent="1" edge="1">
          <mxGeometry width="50" height="50" relative="1" as="geometry">
            <mxPoint x="-1770" y="1076.75" as="sourcePoint" />
            <mxPoint x="-1895" y="1077" as="targetPoint" />
          </mxGeometry>
        </mxCell>
        <mxCell id="zh43gVmN8LmoXnrAG-2s-359" value="" style="endArrow=classic;html=1;rounded=0;" parent="1" edge="1">
          <mxGeometry width="50" height="50" relative="1" as="geometry">
            <mxPoint x="-1895" y="1080" as="sourcePoint" />
            <mxPoint x="-1895" y="2194.444580078125" as="targetPoint" />
          </mxGeometry>
        </mxCell>
        <mxCell id="zh43gVmN8LmoXnrAG-2s-360" value="" style="endArrow=classic;html=1;rounded=0;" parent="1" edge="1">
          <mxGeometry width="50" height="50" relative="1" as="geometry">
            <mxPoint x="-1900" y="2200" as="sourcePoint" />
            <mxPoint x="800" y="2200" as="targetPoint" />
          </mxGeometry>
        </mxCell>
        <mxCell id="zh43gVmN8LmoXnrAG-2s-361" value="" style="endArrow=classic;html=1;rounded=0;" parent="1" edge="1">
          <mxGeometry width="50" height="50" relative="1" as="geometry">
            <mxPoint x="800" y="2200" as="sourcePoint" />
            <mxPoint x="800" y="1400" as="targetPoint" />
          </mxGeometry>
        </mxCell>
        <mxCell id="zh43gVmN8LmoXnrAG-2s-362" value="False" style="text;html=1;align=center;verticalAlign=middle;resizable=0;points=[];autosize=1;strokeColor=none;fillColor=none;" parent="1" vertex="1">
          <mxGeometry x="-835" y="1038" width="50" height="30" as="geometry" />
        </mxCell>
        <mxCell id="zh43gVmN8LmoXnrAG-2s-363" value="False" style="text;html=1;align=center;verticalAlign=middle;resizable=0;points=[];autosize=1;strokeColor=none;fillColor=none;" parent="1" vertex="1">
          <mxGeometry x="-1135" y="1038" width="50" height="30" as="geometry" />
        </mxCell>
        <mxCell id="zh43gVmN8LmoXnrAG-2s-366" value="True" style="text;html=1;align=center;verticalAlign=middle;resizable=0;points=[];autosize=1;strokeColor=none;fillColor=none;" parent="1" vertex="1">
          <mxGeometry x="-1860" y="1028" width="50" height="30" as="geometry" />
        </mxCell>
        <mxCell id="VsZHqk0auCdiCt8uDxmq-1" value="" style="edgeStyle=none;curved=1;rounded=0;orthogonalLoop=1;jettySize=auto;html=1;fontSize=12;startSize=8;endSize=8;" parent="1" source="VsZHqk0auCdiCt8uDxmq-3" target="VsZHqk0auCdiCt8uDxmq-5" edge="1">
          <mxGeometry relative="1" as="geometry" />
        </mxCell>
        <mxCell id="VsZHqk0auCdiCt8uDxmq-2" value="" style="edgeStyle=none;curved=1;rounded=0;orthogonalLoop=1;jettySize=auto;html=1;fontSize=12;startSize=8;endSize=8;" parent="1" source="VsZHqk0auCdiCt8uDxmq-3" target="VsZHqk0auCdiCt8uDxmq-16" edge="1">
          <mxGeometry relative="1" as="geometry" />
        </mxCell>
        <mxCell id="VsZHqk0auCdiCt8uDxmq-3" value="1. Tambah&lt;div&gt;motor&lt;/div&gt;" style="rhombus;whiteSpace=wrap;html=1;strokeWidth=2;" parent="1" vertex="1">
          <mxGeometry x="910" y="680" width="100" height="105" as="geometry" />
        </mxCell>
        <mxCell id="dYjNuDE8w0LizR0KFd_e-15" value="" style="edgeStyle=orthogonalEdgeStyle;rounded=0;orthogonalLoop=1;jettySize=auto;html=1;" parent="1" source="VsZHqk0auCdiCt8uDxmq-5" target="dYjNuDE8w0LizR0KFd_e-14" edge="1">
          <mxGeometry relative="1" as="geometry" />
        </mxCell>
        <mxCell id="VsZHqk0auCdiCt8uDxmq-5" value="&lt;div&gt;INPUT&lt;/div&gt;Jenis motor" style="shape=parallelogram;perimeter=parallelogramPerimeter;whiteSpace=wrap;html=1;fixedSize=1;strokeWidth=2;" parent="1" vertex="1">
          <mxGeometry x="1095" y="702.5" width="120" height="60" as="geometry" />
        </mxCell>
        <mxCell id="VsZHqk0auCdiCt8uDxmq-6" value="" style="endArrow=classic;html=1;rounded=0;fontSize=12;startSize=8;endSize=8;curved=1;" parent="1" edge="1">
          <mxGeometry width="50" height="50" relative="1" as="geometry">
            <mxPoint x="1075" y="702.7899999999998" as="sourcePoint" />
            <mxPoint x="1115" y="702.4999999999999" as="targetPoint" />
            <Array as="points">
              <mxPoint x="1095" y="702.4999999999999" />
            </Array>
          </mxGeometry>
        </mxCell>
        <mxCell id="VsZHqk0auCdiCt8uDxmq-7" value="" style="edgeStyle=none;curved=1;rounded=0;orthogonalLoop=1;jettySize=auto;html=1;fontSize=12;startSize=8;endSize=8;" parent="1" source="VsZHqk0auCdiCt8uDxmq-8" target="VsZHqk0auCdiCt8uDxmq-12" edge="1">
          <mxGeometry relative="1" as="geometry" />
        </mxCell>
        <mxCell id="VsZHqk0auCdiCt8uDxmq-8" value="&lt;div&gt;INPUT&lt;/div&gt;Harga sewa/hari" style="shape=parallelogram;perimeter=parallelogramPerimeter;whiteSpace=wrap;html=1;fixedSize=1;strokeWidth=2;" parent="1" vertex="1">
          <mxGeometry x="1461" y="814" width="120" height="60" as="geometry" />
        </mxCell>
        <mxCell id="VsZHqk0auCdiCt8uDxmq-9" value="" style="endArrow=classic;html=1;rounded=0;fontSize=12;startSize=8;endSize=8;curved=1;" parent="1" edge="1">
          <mxGeometry width="50" height="50" relative="1" as="geometry">
            <mxPoint x="1441" y="814.2899999999998" as="sourcePoint" />
            <mxPoint x="1481" y="813.9999999999999" as="targetPoint" />
          </mxGeometry>
        </mxCell>
        <mxCell id="VsZHqk0auCdiCt8uDxmq-10" value="True" style="text;html=1;align=center;verticalAlign=middle;resizable=0;points=[];autosize=1;strokeColor=none;fillColor=none;fontSize=16;" parent="1" vertex="1">
          <mxGeometry x="1004" y="702.5" width="60" height="30" as="geometry" />
        </mxCell>
        <mxCell id="VsZHqk0auCdiCt8uDxmq-11" value="" style="edgeStyle=none;curved=1;rounded=0;orthogonalLoop=1;jettySize=auto;html=1;fontSize=12;startSize=8;endSize=8;exitX=1;exitY=0.5;exitDx=0;exitDy=0;" parent="1" source="dYjNuDE8w0LizR0KFd_e-14" edge="1">
          <mxGeometry relative="1" as="geometry">
            <mxPoint x="1850" y="732.5" as="targetPoint" />
          </mxGeometry>
        </mxCell>
        <mxCell id="VsZHqk0auCdiCt8uDxmq-12" value="&lt;div&gt;OUTPUT&lt;/div&gt;Motor berhasil&lt;div&gt;ditambahkan&lt;/div&gt;" style="shape=parallelogram;perimeter=parallelogramPerimeter;whiteSpace=wrap;html=1;fixedSize=1;strokeWidth=2;" parent="1" vertex="1">
          <mxGeometry x="1631" y="814" width="120" height="60" as="geometry" />
        </mxCell>
        <mxCell id="VsZHqk0auCdiCt8uDxmq-13" value="" style="endArrow=classic;html=1;rounded=0;fontSize=12;startSize=8;endSize=8;curved=1;" parent="1" edge="1">
          <mxGeometry width="50" height="50" relative="1" as="geometry">
            <mxPoint x="1730" y="872.6699999999998" as="sourcePoint" />
            <mxPoint x="1764" y="872.9599999999998" as="targetPoint" />
          </mxGeometry>
        </mxCell>
        <mxCell id="VsZHqk0auCdiCt8uDxmq-14" value="" style="edgeStyle=none;curved=1;rounded=0;orthogonalLoop=1;jettySize=auto;html=1;fontSize=12;startSize=8;endSize=8;" parent="1" source="VsZHqk0auCdiCt8uDxmq-16" target="VsZHqk0auCdiCt8uDxmq-17" edge="1">
          <mxGeometry relative="1" as="geometry" />
        </mxCell>
        <mxCell id="VsZHqk0auCdiCt8uDxmq-15" value="" style="edgeStyle=none;curved=1;rounded=0;orthogonalLoop=1;jettySize=auto;html=1;fontSize=12;startSize=8;endSize=8;" parent="1" source="VsZHqk0auCdiCt8uDxmq-16" target="VsZHqk0auCdiCt8uDxmq-22" edge="1">
          <mxGeometry relative="1" as="geometry" />
        </mxCell>
        <mxCell id="VsZHqk0auCdiCt8uDxmq-16" value="2. Tampilkan&lt;div&gt;daftar motor&lt;/div&gt;" style="rhombus;whiteSpace=wrap;html=1;strokeWidth=2;" parent="1" vertex="1">
          <mxGeometry x="910" y="859" width="100" height="100" as="geometry" />
        </mxCell>
        <mxCell id="VsZHqk0auCdiCt8uDxmq-17" value="&lt;div&gt;OUTPUT&lt;/div&gt;Daftar motor beserta&lt;div&gt;harga sewa/hari dan&amp;nbsp;&lt;/div&gt;&lt;div&gt;status tersedia atau&amp;nbsp;&lt;/div&gt;&lt;div&gt;t&lt;span style=&quot;background-color: initial;&quot;&gt;idak&lt;/span&gt;&lt;/div&gt;" style="shape=parallelogram;perimeter=parallelogramPerimeter;whiteSpace=wrap;html=1;fixedSize=1;strokeWidth=2;" parent="1" vertex="1">
          <mxGeometry x="1056.5" y="873" width="153.5" height="76" as="geometry" />
        </mxCell>
        <mxCell id="VsZHqk0auCdiCt8uDxmq-18" value="" style="endArrow=classic;html=1;rounded=0;fontSize=12;startSize=8;endSize=8;curved=1;" parent="1" edge="1">
          <mxGeometry width="50" height="50" relative="1" as="geometry">
            <mxPoint x="1180" y="949" as="sourcePoint" />
            <mxPoint x="1220" y="949" as="targetPoint" />
          </mxGeometry>
        </mxCell>
        <mxCell id="VsZHqk0auCdiCt8uDxmq-19" value="True" style="text;html=1;align=center;verticalAlign=middle;resizable=0;points=[];autosize=1;strokeColor=none;fillColor=none;fontSize=16;" parent="1" vertex="1">
          <mxGeometry x="1000" y="879" width="60" height="30" as="geometry" />
        </mxCell>
        <mxCell id="VsZHqk0auCdiCt8uDxmq-20" value="" style="edgeStyle=none;curved=1;rounded=0;orthogonalLoop=1;jettySize=auto;html=1;fontSize=12;startSize=8;endSize=8;" parent="1" source="VsZHqk0auCdiCt8uDxmq-22" edge="1">
          <mxGeometry relative="1" as="geometry">
            <mxPoint x="1060" y="1066.5" as="targetPoint" />
          </mxGeometry>
        </mxCell>
        <mxCell id="VsZHqk0auCdiCt8uDxmq-21" value="" style="edgeStyle=none;curved=1;rounded=0;orthogonalLoop=1;jettySize=auto;html=1;fontSize=12;startSize=8;endSize=8;" parent="1" source="VsZHqk0auCdiCt8uDxmq-22" target="VsZHqk0auCdiCt8uDxmq-43" edge="1">
          <mxGeometry relative="1" as="geometry" />
        </mxCell>
        <mxCell id="VsZHqk0auCdiCt8uDxmq-22" value="3. Update&lt;div&gt;motor&lt;/div&gt;" style="rhombus;whiteSpace=wrap;html=1;strokeWidth=2;" parent="1" vertex="1">
          <mxGeometry x="910" y="1016.5" width="100" height="100" as="geometry" />
        </mxCell>
        <mxCell id="VsZHqk0auCdiCt8uDxmq-23" value="False" style="text;html=1;align=center;verticalAlign=middle;resizable=0;points=[];autosize=1;strokeColor=none;fillColor=none;fontSize=16;" parent="1" vertex="1">
          <mxGeometry x="960" y="976.5" width="60" height="30" as="geometry" />
        </mxCell>
        <mxCell id="VsZHqk0auCdiCt8uDxmq-24" value="False" style="text;html=1;align=center;verticalAlign=middle;resizable=0;points=[];autosize=1;strokeColor=none;fillColor=none;fontSize=16;" parent="1" vertex="1">
          <mxGeometry x="960" y="806.5" width="60" height="30" as="geometry" />
        </mxCell>
        <mxCell id="VsZHqk0auCdiCt8uDxmq-25" value="" style="edgeStyle=none;curved=1;rounded=0;orthogonalLoop=1;jettySize=auto;html=1;fontSize=12;startSize=8;endSize=8;" parent="1" target="VsZHqk0auCdiCt8uDxmq-27" edge="1">
          <mxGeometry relative="1" as="geometry">
            <mxPoint x="1160" y="1066.5" as="sourcePoint" />
          </mxGeometry>
        </mxCell>
        <mxCell id="VsZHqk0auCdiCt8uDxmq-26" value="" style="edgeStyle=none;curved=1;rounded=0;orthogonalLoop=1;jettySize=auto;html=1;fontSize=12;startSize=8;endSize=8;entryX=0;entryY=0.5;entryDx=0;entryDy=0;" parent="1" source="VsZHqk0auCdiCt8uDxmq-27" target="VsZHqk0auCdiCt8uDxmq-31" edge="1">
          <mxGeometry relative="1" as="geometry">
            <mxPoint x="1350" y="1066.5" as="targetPoint" />
          </mxGeometry>
        </mxCell>
        <mxCell id="VsZHqk0auCdiCt8uDxmq-27" value="&lt;div&gt;INPUT&lt;/div&gt;Motor yang ingin&lt;div&gt;diupdate&lt;/div&gt;" style="shape=parallelogram;perimeter=parallelogramPerimeter;whiteSpace=wrap;html=1;fixedSize=1;strokeWidth=2;" parent="1" vertex="1">
          <mxGeometry x="1253" y="1031.5" width="135" height="70" as="geometry" />
        </mxCell>
        <mxCell id="VsZHqk0auCdiCt8uDxmq-28" value="" style="endArrow=classic;html=1;rounded=0;fontSize=12;startSize=8;endSize=8;curved=1;" parent="1" edge="1">
          <mxGeometry width="50" height="50" relative="1" as="geometry">
            <mxPoint x="1257.5" y="1031.5" as="sourcePoint" />
            <mxPoint x="1277.5" y="1031.5" as="targetPoint" />
            <Array as="points">
              <mxPoint x="1237.5" y="1031.5" />
              <mxPoint x="1257.5" y="1031.5" />
            </Array>
          </mxGeometry>
        </mxCell>
        <mxCell id="VsZHqk0auCdiCt8uDxmq-29" value="" style="edgeStyle=none;curved=1;rounded=0;orthogonalLoop=1;jettySize=auto;html=1;fontSize=12;startSize=8;endSize=8;" parent="1" source="VsZHqk0auCdiCt8uDxmq-31" target="VsZHqk0auCdiCt8uDxmq-32" edge="1">
          <mxGeometry relative="1" as="geometry" />
        </mxCell>
        <mxCell id="VsZHqk0auCdiCt8uDxmq-30" value="" style="edgeStyle=orthogonalEdgeStyle;rounded=0;orthogonalLoop=1;jettySize=auto;html=1;exitX=0.5;exitY=1;exitDx=0;exitDy=0;entryX=0.5;entryY=0;entryDx=0;entryDy=0;" parent="1" source="VsZHqk0auCdiCt8uDxmq-31" target="VsZHqk0auCdiCt8uDxmq-39" edge="1">
          <mxGeometry relative="1" as="geometry">
            <mxPoint x="1725.3636363636351" y="1209.0000000000002" as="targetPoint" />
          </mxGeometry>
        </mxCell>
        <mxCell id="VsZHqk0auCdiCt8uDxmq-31" value="&lt;span style=&quot;background-color: initial;&quot;&gt;inputan&lt;/span&gt;&lt;div&gt;&lt;span style=&quot;background-color: initial;&quot;&gt;sesuai&amp;nbsp;&lt;/span&gt;&lt;div&gt;&lt;div&gt;dengan&amp;nbsp;&lt;span style=&quot;background-color: initial;&quot;&gt;opsi yang&amp;nbsp;&lt;/span&gt;&lt;/div&gt;&lt;div&gt;ada&lt;/div&gt;&lt;/div&gt;&lt;/div&gt;" style="rhombus;whiteSpace=wrap;html=1;strokeWidth=2;" parent="1" vertex="1">
          <mxGeometry x="1474" y="1006.5" width="126" height="120" as="geometry" />
        </mxCell>
        <mxCell id="VsZHqk0auCdiCt8uDxmq-32" value="&lt;div&gt;&lt;div&gt;OUTPUT&lt;/div&gt;&lt;div&gt;Tidak&lt;div&gt;ditemukan&lt;/div&gt;&lt;/div&gt;&lt;/div&gt;" style="shape=parallelogram;perimeter=parallelogramPerimeter;whiteSpace=wrap;html=1;fixedSize=1;strokeWidth=2;" parent="1" vertex="1">
          <mxGeometry x="1690.75" y="1035.9" width="120" height="60" as="geometry" />
        </mxCell>
        <mxCell id="VsZHqk0auCdiCt8uDxmq-33" value="" style="endArrow=classic;html=1;rounded=0;fontSize=12;startSize=8;endSize=8;curved=1;" parent="1" edge="1">
          <mxGeometry width="50" height="50" relative="1" as="geometry">
            <mxPoint x="1780" y="1095.5700000000002" as="sourcePoint" />
            <mxPoint x="1820" y="1095.5700000000002" as="targetPoint" />
          </mxGeometry>
        </mxCell>
        <mxCell id="VsZHqk0auCdiCt8uDxmq-34" value="&lt;font style=&quot;font-size: 12px;&quot;&gt;False&lt;/font&gt;" style="text;html=1;align=center;verticalAlign=middle;resizable=0;points=[];autosize=1;strokeColor=none;fillColor=none;fontSize=16;" parent="1" vertex="1">
          <mxGeometry x="1605" y="1031.5" width="50" height="30" as="geometry" />
        </mxCell>
        <mxCell id="VsZHqk0auCdiCt8uDxmq-166" value="" style="edgeStyle=orthogonalEdgeStyle;rounded=0;orthogonalLoop=1;jettySize=auto;html=1;" parent="1" source="VsZHqk0auCdiCt8uDxmq-39" target="VsZHqk0auCdiCt8uDxmq-164" edge="1">
          <mxGeometry relative="1" as="geometry" />
        </mxCell>
        <mxCell id="VsZHqk0auCdiCt8uDxmq-39" value="&lt;div&gt;INPUT&lt;/div&gt;Jumlah motor&amp;nbsp;&lt;div&gt;baru&lt;/div&gt;" style="shape=parallelogram;perimeter=parallelogramPerimeter;whiteSpace=wrap;html=1;fixedSize=1;strokeWidth=2;" parent="1" vertex="1">
          <mxGeometry x="1476.25" y="1209" width="120" height="60" as="geometry" />
        </mxCell>
        <mxCell id="VsZHqk0auCdiCt8uDxmq-40" value="" style="endArrow=classic;html=1;rounded=0;fontSize=12;startSize=8;endSize=8;curved=1;" parent="1" edge="1">
          <mxGeometry width="50" height="50" relative="1" as="geometry">
            <mxPoint x="1456.5" y="1209" as="sourcePoint" />
            <mxPoint x="1496.5" y="1209" as="targetPoint" />
            <Array as="points" />
          </mxGeometry>
        </mxCell>
        <mxCell id="VsZHqk0auCdiCt8uDxmq-41" value="" style="edgeStyle=none;curved=1;rounded=0;orthogonalLoop=1;jettySize=auto;html=1;fontSize=12;startSize=8;endSize=8;entryX=0;entryY=0.5;entryDx=0;entryDy=0;" parent="1" source="VsZHqk0auCdiCt8uDxmq-43" edge="1">
          <mxGeometry relative="1" as="geometry">
            <mxPoint x="1084" y="1406.5" as="targetPoint" />
          </mxGeometry>
        </mxCell>
        <mxCell id="VsZHqk0auCdiCt8uDxmq-42" value="" style="edgeStyle=orthogonalEdgeStyle;rounded=0;orthogonalLoop=1;jettySize=auto;html=1;" parent="1" source="VsZHqk0auCdiCt8uDxmq-43" target="VsZHqk0auCdiCt8uDxmq-97" edge="1">
          <mxGeometry relative="1" as="geometry" />
        </mxCell>
        <mxCell id="VsZHqk0auCdiCt8uDxmq-43" value="4. Hapus motor" style="rhombus;whiteSpace=wrap;html=1;strokeWidth=2;" parent="1" vertex="1">
          <mxGeometry x="910" y="1356.5" width="100" height="100" as="geometry" />
        </mxCell>
        <mxCell id="VsZHqk0auCdiCt8uDxmq-44" value="" style="edgeStyle=none;curved=1;rounded=0;orthogonalLoop=1;jettySize=auto;html=1;fontSize=12;startSize=8;endSize=8;" parent="1" source="VsZHqk0auCdiCt8uDxmq-45" target="VsZHqk0auCdiCt8uDxmq-56" edge="1">
          <mxGeometry relative="1" as="geometry" />
        </mxCell>
        <mxCell id="VsZHqk0auCdiCt8uDxmq-45" value="6. Logout" style="rhombus;whiteSpace=wrap;html=1;strokeWidth=2;" parent="1" vertex="1">
          <mxGeometry x="910" y="1767.5" width="100" height="100" as="geometry" />
        </mxCell>
        <mxCell id="VsZHqk0auCdiCt8uDxmq-46" value="True" style="text;html=1;align=center;verticalAlign=middle;resizable=0;points=[];autosize=1;strokeColor=none;fillColor=none;fontSize=16;" parent="1" vertex="1">
          <mxGeometry x="994" y="1037.5" width="60" height="30" as="geometry" />
        </mxCell>
        <mxCell id="VsZHqk0auCdiCt8uDxmq-47" value="False" style="text;html=1;align=center;verticalAlign=middle;resizable=0;points=[];autosize=1;strokeColor=none;fillColor=none;fontSize=16;" parent="1" vertex="1">
          <mxGeometry x="954" y="1137.5" width="60" height="30" as="geometry" />
        </mxCell>
        <mxCell id="VsZHqk0auCdiCt8uDxmq-48" value="True" style="text;html=1;align=center;verticalAlign=middle;resizable=0;points=[];autosize=1;strokeColor=none;fillColor=none;fontSize=16;" parent="1" vertex="1">
          <mxGeometry x="1014" y="1371.5" width="60" height="30" as="geometry" />
        </mxCell>
        <mxCell id="VsZHqk0auCdiCt8uDxmq-49" value="False" style="text;html=1;align=center;verticalAlign=middle;resizable=0;points=[];autosize=1;strokeColor=none;fillColor=none;fontSize=16;" parent="1" vertex="1">
          <mxGeometry x="1014" y="1787.5" width="60" height="30" as="geometry" />
        </mxCell>
        <mxCell id="VsZHqk0auCdiCt8uDxmq-50" value="True" style="text;html=1;align=center;verticalAlign=middle;resizable=0;points=[];autosize=1;strokeColor=none;fillColor=none;fontSize=16;" parent="1" vertex="1">
          <mxGeometry x="960" y="1867.5" width="60" height="30" as="geometry" />
        </mxCell>
        <mxCell id="VsZHqk0auCdiCt8uDxmq-55" value="" style="endArrow=none;html=1;rounded=0;fontSize=12;startSize=8;endSize=8;curved=1;" parent="1" edge="1">
          <mxGeometry width="50" height="50" relative="1" as="geometry">
            <mxPoint x="1850" y="1816.5" as="sourcePoint" />
            <mxPoint x="1850" y="580" as="targetPoint" />
          </mxGeometry>
        </mxCell>
        <mxCell id="VsZHqk0auCdiCt8uDxmq-56" value="&lt;div&gt;OUTPUT&lt;/div&gt;Pilihan tidak valid" style="shape=parallelogram;perimeter=parallelogramPerimeter;whiteSpace=wrap;html=1;fixedSize=1;strokeWidth=2;" parent="1" vertex="1">
          <mxGeometry x="1077.5" y="1787.5" width="120" height="60" as="geometry" />
        </mxCell>
        <mxCell id="VsZHqk0auCdiCt8uDxmq-57" value="" style="endArrow=classic;html=1;rounded=0;fontSize=12;startSize=8;endSize=8;curved=1;" parent="1" edge="1">
          <mxGeometry width="50" height="50" relative="1" as="geometry">
            <mxPoint x="1164" y="1847.5" as="sourcePoint" />
            <mxPoint x="1204" y="1847.5" as="targetPoint" />
          </mxGeometry>
        </mxCell>
        <mxCell id="VsZHqk0auCdiCt8uDxmq-58" value="" style="endArrow=none;html=1;rounded=0;fontSize=12;startSize=8;endSize=8;curved=1;" parent="1" edge="1">
          <mxGeometry width="50" height="50" relative="1" as="geometry">
            <mxPoint x="960" y="1920" as="sourcePoint" />
            <mxPoint x="960" y="1869.5" as="targetPoint" />
          </mxGeometry>
        </mxCell>
        <mxCell id="VsZHqk0auCdiCt8uDxmq-59" value="" style="endArrow=classic;html=1;rounded=0;fontSize=12;startSize=8;endSize=8;curved=1;exitX=1;exitY=0.5;exitDx=0;exitDy=0;" parent="1" source="VsZHqk0auCdiCt8uDxmq-72" edge="1">
          <mxGeometry width="50" height="50" relative="1" as="geometry">
            <mxPoint x="1790" y="1406.5" as="sourcePoint" />
            <mxPoint x="1850" y="1406.5" as="targetPoint" />
          </mxGeometry>
        </mxCell>
        <mxCell id="VsZHqk0auCdiCt8uDxmq-60" value="" style="endArrow=classic;html=1;rounded=0;fontSize=12;startSize=8;endSize=8;curved=1;exitX=1;exitY=0.5;exitDx=0;exitDy=0;" parent="1" source="VsZHqk0auCdiCt8uDxmq-32" edge="1">
          <mxGeometry width="50" height="50" relative="1" as="geometry">
            <mxPoint x="1780" y="1066.5" as="sourcePoint" />
            <mxPoint x="1850" y="1066.5" as="targetPoint" />
          </mxGeometry>
        </mxCell>
        <mxCell id="VsZHqk0auCdiCt8uDxmq-61" value="" style="endArrow=classic;html=1;rounded=0;fontSize=12;startSize=8;endSize=8;curved=1;" parent="1" edge="1">
          <mxGeometry width="50" height="50" relative="1" as="geometry">
            <mxPoint x="1190" y="1817.5" as="sourcePoint" />
            <mxPoint x="1850" y="1817.5" as="targetPoint" />
          </mxGeometry>
        </mxCell>
        <mxCell id="VsZHqk0auCdiCt8uDxmq-63" value="" style="endArrow=classic;html=1;rounded=0;fontSize=12;startSize=8;endSize=8;curved=1;" parent="1" edge="1">
          <mxGeometry width="50" height="50" relative="1" as="geometry">
            <mxPoint x="1140" y="1336.5" as="sourcePoint" />
            <mxPoint x="1850" y="1336.5" as="targetPoint" />
          </mxGeometry>
        </mxCell>
        <mxCell id="VsZHqk0auCdiCt8uDxmq-65" value="" style="edgeStyle=none;curved=1;rounded=0;orthogonalLoop=1;jettySize=auto;html=1;fontSize=12;startSize=8;endSize=8;" parent="1" target="VsZHqk0auCdiCt8uDxmq-67" edge="1">
          <mxGeometry relative="1" as="geometry">
            <mxPoint x="1184" y="1406.5" as="sourcePoint" />
          </mxGeometry>
        </mxCell>
        <mxCell id="VsZHqk0auCdiCt8uDxmq-66" value="" style="edgeStyle=none;curved=1;rounded=0;orthogonalLoop=1;jettySize=auto;html=1;fontSize=12;startSize=8;endSize=8;entryX=0;entryY=0.5;entryDx=0;entryDy=0;" parent="1" source="VsZHqk0auCdiCt8uDxmq-67" target="VsZHqk0auCdiCt8uDxmq-71" edge="1">
          <mxGeometry relative="1" as="geometry">
            <mxPoint x="1430" y="1406.5" as="targetPoint" />
          </mxGeometry>
        </mxCell>
        <mxCell id="VsZHqk0auCdiCt8uDxmq-67" value="&lt;div&gt;INPUT&lt;/div&gt;Motor yang ingin&amp;nbsp;&lt;div&gt;dihapus&lt;/div&gt;" style="shape=parallelogram;perimeter=parallelogramPerimeter;whiteSpace=wrap;html=1;fixedSize=1;strokeWidth=2;" parent="1" vertex="1">
          <mxGeometry x="1277.5" y="1371.5" width="135" height="70" as="geometry" />
        </mxCell>
        <mxCell id="VsZHqk0auCdiCt8uDxmq-68" value="" style="endArrow=classic;html=1;rounded=0;fontSize=12;startSize=8;endSize=8;curved=1;" parent="1" edge="1">
          <mxGeometry width="50" height="50" relative="1" as="geometry">
            <mxPoint x="1278" y="1373" as="sourcePoint" />
            <mxPoint x="1298" y="1373" as="targetPoint" />
            <Array as="points">
              <mxPoint x="1258" y="1373" />
              <mxPoint x="1278" y="1373" />
            </Array>
          </mxGeometry>
        </mxCell>
        <mxCell id="VsZHqk0auCdiCt8uDxmq-69" value="" style="edgeStyle=none;curved=1;rounded=0;orthogonalLoop=1;jettySize=auto;html=1;fontSize=12;startSize=8;endSize=8;" parent="1" source="VsZHqk0auCdiCt8uDxmq-71" target="VsZHqk0auCdiCt8uDxmq-72" edge="1">
          <mxGeometry relative="1" as="geometry" />
        </mxCell>
        <mxCell id="VsZHqk0auCdiCt8uDxmq-70" value="" style="edgeStyle=orthogonalEdgeStyle;rounded=0;orthogonalLoop=1;jettySize=auto;html=1;" parent="1" source="VsZHqk0auCdiCt8uDxmq-71" edge="1">
          <mxGeometry relative="1" as="geometry">
            <mxPoint x="1507.4666666666665" y="1516.5" as="targetPoint" />
          </mxGeometry>
        </mxCell>
        <mxCell id="VsZHqk0auCdiCt8uDxmq-71" value="&lt;span style=&quot;background-color: initial;&quot;&gt;inputan&amp;nbsp;&lt;/span&gt;&lt;div&gt;&lt;span style=&quot;background-color: initial;&quot;&gt;sesuai&amp;nbsp;&lt;/span&gt;&lt;div&gt;&lt;div&gt;dengan&amp;nbsp;&lt;span style=&quot;background-color: initial;&quot;&gt;opsi yang&amp;nbsp;&lt;/span&gt;&lt;/div&gt;&lt;div&gt;ada&lt;/div&gt;&lt;/div&gt;&lt;/div&gt;" style="rhombus;whiteSpace=wrap;html=1;strokeWidth=2;" parent="1" vertex="1">
          <mxGeometry x="1444" y="1346.5" width="126" height="120" as="geometry" />
        </mxCell>
        <mxCell id="VsZHqk0auCdiCt8uDxmq-72" value="&lt;div&gt;&lt;span style=&quot;background-color: initial;&quot;&gt;OUTPUT&lt;/span&gt;&lt;/div&gt;&lt;span style=&quot;background-color: initial;&quot;&gt;Tidak&lt;/span&gt;&lt;div&gt;&lt;div&gt;&lt;div&gt;ditemukan&lt;/div&gt;&lt;/div&gt;&lt;/div&gt;" style="shape=parallelogram;perimeter=parallelogramPerimeter;whiteSpace=wrap;html=1;fixedSize=1;strokeWidth=2;" parent="1" vertex="1">
          <mxGeometry x="1682.25" y="1376.23" width="120" height="60" as="geometry" />
        </mxCell>
        <mxCell id="VsZHqk0auCdiCt8uDxmq-73" value="" style="endArrow=classic;html=1;rounded=0;fontSize=12;startSize=8;endSize=8;curved=1;" parent="1" edge="1">
          <mxGeometry width="50" height="50" relative="1" as="geometry">
            <mxPoint x="1779.25" y="1435.23" as="sourcePoint" />
            <mxPoint x="1819.25" y="1435.23" as="targetPoint" />
          </mxGeometry>
        </mxCell>
        <mxCell id="VsZHqk0auCdiCt8uDxmq-74" value="False" style="text;html=1;align=center;verticalAlign=middle;resizable=0;points=[];autosize=1;strokeColor=none;fillColor=none;fontSize=16;" parent="1" vertex="1">
          <mxGeometry x="1604" y="1371.5" width="60" height="30" as="geometry" />
        </mxCell>
        <mxCell id="VsZHqk0auCdiCt8uDxmq-75" value="True" style="text;html=1;align=center;verticalAlign=middle;resizable=0;points=[];autosize=1;strokeColor=none;fillColor=none;fontSize=16;" parent="1" vertex="1">
          <mxGeometry x="1502" y="1470.33" width="60" height="30" as="geometry" />
        </mxCell>
        <mxCell id="VsZHqk0auCdiCt8uDxmq-76" value="&lt;div&gt;OUTPUT&lt;/div&gt;Berhasil&lt;div&gt;dihapus&lt;/div&gt;" style="shape=parallelogram;perimeter=parallelogramPerimeter;whiteSpace=wrap;html=1;fixedSize=1;strokeWidth=2;" parent="1" vertex="1">
          <mxGeometry x="1442" y="1516.5" width="120" height="60" as="geometry" />
        </mxCell>
        <mxCell id="VsZHqk0auCdiCt8uDxmq-77" value="" style="endArrow=classic;html=1;rounded=0;fontSize=12;startSize=8;endSize=8;curved=1;" parent="1" edge="1">
          <mxGeometry width="50" height="50" relative="1" as="geometry">
            <mxPoint x="1538" y="1577" as="sourcePoint" />
            <mxPoint x="1578" y="1577" as="targetPoint" />
          </mxGeometry>
        </mxCell>
        <mxCell id="VsZHqk0auCdiCt8uDxmq-78" value="" style="endArrow=classic;html=1;rounded=0;" parent="1" edge="1">
          <mxGeometry width="50" height="50" relative="1" as="geometry">
            <mxPoint x="1850" y="1476.5" as="sourcePoint" />
            <mxPoint x="1850" y="1406.5" as="targetPoint" />
          </mxGeometry>
        </mxCell>
        <mxCell id="VsZHqk0auCdiCt8uDxmq-79" value="" style="endArrow=classic;html=1;rounded=0;" parent="1" edge="1">
          <mxGeometry width="50" height="50" relative="1" as="geometry">
            <mxPoint x="1850" y="1386.5" as="sourcePoint" />
            <mxPoint x="1850" y="1336.5" as="targetPoint" />
          </mxGeometry>
        </mxCell>
        <mxCell id="VsZHqk0auCdiCt8uDxmq-80" value="" style="endArrow=classic;html=1;rounded=0;" parent="1" edge="1">
          <mxGeometry width="50" height="50" relative="1" as="geometry">
            <mxPoint x="1850" y="1146.5" as="sourcePoint" />
            <mxPoint x="1850" y="1066.5" as="targetPoint" />
          </mxGeometry>
        </mxCell>
        <mxCell id="VsZHqk0auCdiCt8uDxmq-82" value="" style="edgeStyle=orthogonalEdgeStyle;rounded=0;orthogonalLoop=1;jettySize=auto;html=1;" parent="1" source="VsZHqk0auCdiCt8uDxmq-84" target="VsZHqk0auCdiCt8uDxmq-85" edge="1">
          <mxGeometry relative="1" as="geometry" />
        </mxCell>
        <mxCell id="VsZHqk0auCdiCt8uDxmq-83" value="" style="edgeStyle=orthogonalEdgeStyle;rounded=0;orthogonalLoop=1;jettySize=auto;html=1;" parent="1" source="VsZHqk0auCdiCt8uDxmq-84" edge="1">
          <mxGeometry relative="1" as="geometry">
            <mxPoint x="1020" y="1336.5" as="targetPoint" />
          </mxGeometry>
        </mxCell>
        <mxCell id="VsZHqk0auCdiCt8uDxmq-84" value="tidak&amp;nbsp;&lt;div&gt;ada jenis&amp;nbsp;&lt;/div&gt;&lt;div&gt;motor&lt;span style=&quot;background-color: initial;&quot;&gt;&amp;nbsp;baru&amp;nbsp;&lt;/span&gt;&lt;span style=&quot;background-color: initial;&quot;&gt;atau harga sewa&lt;/span&gt;&lt;span style=&quot;background-color: initial;&quot;&gt;&amp;nbsp;&lt;/span&gt;&lt;/div&gt;&lt;div&gt;&lt;span style=&quot;background-color: initial;&quot;&gt;baru&lt;/span&gt;&lt;/div&gt;" style="strokeWidth=2;html=1;shape=mxgraph.flowchart.decision;whiteSpace=wrap;" parent="1" vertex="1">
          <mxGeometry x="1074" y="1126.5" width="115" height="90" as="geometry" />
        </mxCell>
        <mxCell id="VsZHqk0auCdiCt8uDxmq-85" value="&lt;div&gt;OUTPUT&lt;/div&gt;Berhasil&lt;div&gt;diupdate&lt;/div&gt;" style="shape=parallelogram;perimeter=parallelogramPerimeter;whiteSpace=wrap;html=1;fixedSize=1;strokeWidth=2;" parent="1" vertex="1">
          <mxGeometry x="1071.5" y="1246.5" width="120" height="60" as="geometry" />
        </mxCell>
        <mxCell id="VsZHqk0auCdiCt8uDxmq-86" value="" style="endArrow=classic;html=1;rounded=0;fontSize=12;startSize=8;endSize=8;curved=1;" parent="1" edge="1">
          <mxGeometry width="50" height="50" relative="1" as="geometry">
            <mxPoint x="1160" y="1306.5" as="sourcePoint" />
            <mxPoint x="1200" y="1306.5" as="targetPoint" />
          </mxGeometry>
        </mxCell>
        <mxCell id="VsZHqk0auCdiCt8uDxmq-87" value="" style="endArrow=none;html=1;rounded=0;" parent="1" edge="1">
          <mxGeometry width="50" height="50" relative="1" as="geometry">
            <mxPoint x="1020" y="1336.5" as="sourcePoint" />
            <mxPoint x="1140" y="1336.5" as="targetPoint" />
          </mxGeometry>
        </mxCell>
        <mxCell id="VsZHqk0auCdiCt8uDxmq-88" value="" style="endArrow=classic;html=1;rounded=0;" parent="1" edge="1">
          <mxGeometry width="50" height="50" relative="1" as="geometry">
            <mxPoint x="1130" y="1306.5" as="sourcePoint" />
            <mxPoint x="1130" y="1336.5" as="targetPoint" />
          </mxGeometry>
        </mxCell>
        <mxCell id="VsZHqk0auCdiCt8uDxmq-89" value="False" style="text;html=1;align=center;verticalAlign=middle;resizable=0;points=[];autosize=1;strokeColor=none;fillColor=none;" parent="1" vertex="1">
          <mxGeometry x="1130" y="1209" width="50" height="30" as="geometry" />
        </mxCell>
        <mxCell id="VsZHqk0auCdiCt8uDxmq-90" value="True" style="text;html=1;align=center;verticalAlign=middle;resizable=0;points=[];autosize=1;strokeColor=none;fillColor=none;" parent="1" vertex="1">
          <mxGeometry x="1027.5" y="1136.5" width="50" height="30" as="geometry" />
        </mxCell>
        <mxCell id="VsZHqk0auCdiCt8uDxmq-92" value="&lt;div&gt;OUTPUT&lt;/div&gt;Daftar motor beserta&lt;div&gt;harga sewa/hari dan&amp;nbsp;&lt;/div&gt;&lt;div&gt;status tersedia atau&amp;nbsp;&lt;/div&gt;&lt;div&gt;t&lt;span style=&quot;background-color: initial;&quot;&gt;idak&lt;/span&gt;&lt;/div&gt;" style="shape=parallelogram;perimeter=parallelogramPerimeter;whiteSpace=wrap;html=1;fixedSize=1;strokeWidth=2;" parent="1" vertex="1">
          <mxGeometry x="1047.5" y="1029.25" width="150" height="78.5" as="geometry" />
        </mxCell>
        <mxCell id="VsZHqk0auCdiCt8uDxmq-93" value="" style="endArrow=classic;html=1;rounded=0;fontSize=12;startSize=8;endSize=8;curved=1;" parent="1" edge="1">
          <mxGeometry width="50" height="50" relative="1" as="geometry">
            <mxPoint x="1166.5" y="1107.5" as="sourcePoint" />
            <mxPoint x="1206.5" y="1107.5" as="targetPoint" />
          </mxGeometry>
        </mxCell>
        <mxCell id="VsZHqk0auCdiCt8uDxmq-94" value="&lt;div&gt;OUTPUT&lt;/div&gt;Daftar motor beserta&lt;div&gt;harga sewa/hari dan&amp;nbsp;&lt;/div&gt;&lt;div&gt;status tersedia atau&amp;nbsp;&lt;/div&gt;&lt;div&gt;t&lt;span style=&quot;background-color: initial;&quot;&gt;idak&lt;/span&gt;&lt;/div&gt;" style="shape=parallelogram;perimeter=parallelogramPerimeter;whiteSpace=wrap;html=1;fixedSize=1;strokeWidth=2;" parent="1" vertex="1">
          <mxGeometry x="1072.5" y="1371.5" width="157.5" height="78.5" as="geometry" />
        </mxCell>
        <mxCell id="VsZHqk0auCdiCt8uDxmq-95" value="" style="endArrow=classic;html=1;rounded=0;fontSize=12;startSize=8;endSize=8;curved=1;" parent="1" edge="1">
          <mxGeometry width="50" height="50" relative="1" as="geometry">
            <mxPoint x="1195.5" y="1449.75" as="sourcePoint" />
            <mxPoint x="1235.5" y="1449.75" as="targetPoint" />
          </mxGeometry>
        </mxCell>
        <mxCell id="VsZHqk0auCdiCt8uDxmq-96" value="" style="edgeStyle=orthogonalEdgeStyle;rounded=0;orthogonalLoop=1;jettySize=auto;html=1;" parent="1" source="VsZHqk0auCdiCt8uDxmq-97" target="VsZHqk0auCdiCt8uDxmq-101" edge="1">
          <mxGeometry relative="1" as="geometry" />
        </mxCell>
        <mxCell id="VsZHqk0auCdiCt8uDxmq-97" value="5. Melihat&lt;div&gt;daftar&lt;/div&gt;&lt;div&gt;penggunjung&lt;/div&gt;" style="rhombus;whiteSpace=wrap;html=1;strokeWidth=2;" parent="1" vertex="1">
          <mxGeometry x="905" y="1599.5" width="109" height="112.5" as="geometry" />
        </mxCell>
        <mxCell id="VsZHqk0auCdiCt8uDxmq-98" value="" style="endArrow=classic;html=1;rounded=0;entryX=0.5;entryY=0;entryDx=0;entryDy=0;exitX=0.5;exitY=1;exitDx=0;exitDy=0;" parent="1" source="VsZHqk0auCdiCt8uDxmq-97" target="VsZHqk0auCdiCt8uDxmq-45" edge="1">
          <mxGeometry width="50" height="50" relative="1" as="geometry">
            <mxPoint x="959" y="1725.75" as="sourcePoint" />
            <mxPoint x="1009" y="1675.75" as="targetPoint" />
          </mxGeometry>
        </mxCell>
        <mxCell id="VsZHqk0auCdiCt8uDxmq-99" value="False" style="text;html=1;align=center;verticalAlign=middle;resizable=0;points=[];autosize=1;strokeColor=none;fillColor=none;" parent="1" vertex="1">
          <mxGeometry x="964" y="1504.5" width="50" height="30" as="geometry" />
        </mxCell>
        <mxCell id="VsZHqk0auCdiCt8uDxmq-100" value="False" style="text;html=1;align=center;verticalAlign=middle;resizable=0;points=[];autosize=1;strokeColor=none;fillColor=none;" parent="1" vertex="1">
          <mxGeometry x="959" y="1729" width="50" height="30" as="geometry" />
        </mxCell>
        <mxCell id="VsZHqk0auCdiCt8uDxmq-174" value="" style="edgeStyle=orthogonalEdgeStyle;rounded=0;orthogonalLoop=1;jettySize=auto;html=1;" parent="1" source="VsZHqk0auCdiCt8uDxmq-101" target="VsZHqk0auCdiCt8uDxmq-172" edge="1">
          <mxGeometry relative="1" as="geometry" />
        </mxCell>
        <mxCell id="VsZHqk0auCdiCt8uDxmq-101" value="&lt;div&gt;OUTPUT&lt;/div&gt;Daftar member" style="shape=parallelogram;perimeter=parallelogramPerimeter;whiteSpace=wrap;html=1;fixedSize=1;strokeWidth=2;" parent="1" vertex="1">
          <mxGeometry x="1073" y="1620.75" width="150" height="70" as="geometry" />
        </mxCell>
        <mxCell id="VsZHqk0auCdiCt8uDxmq-102" value="" style="endArrow=classic;html=1;rounded=0;fontSize=12;startSize=8;endSize=8;curved=1;" parent="1" edge="1">
          <mxGeometry width="50" height="50" relative="1" as="geometry">
            <mxPoint x="1198" y="1690.42" as="sourcePoint" />
            <mxPoint x="1238" y="1690.42" as="targetPoint" />
          </mxGeometry>
        </mxCell>
        <mxCell id="VsZHqk0auCdiCt8uDxmq-103" value="True" style="text;html=1;align=center;verticalAlign=middle;resizable=0;points=[];autosize=1;strokeColor=none;fillColor=none;" parent="1" vertex="1">
          <mxGeometry x="1014" y="1613.75" width="50" height="30" as="geometry" />
        </mxCell>
        <mxCell id="VsZHqk0auCdiCt8uDxmq-104" value="" style="endArrow=classic;html=1;rounded=0;exitX=1;exitY=0.5;exitDx=0;exitDy=0;" parent="1" source="VsZHqk0auCdiCt8uDxmq-172" edge="1">
          <mxGeometry width="50" height="50" relative="1" as="geometry">
            <mxPoint x="1598" y="1655.25" as="sourcePoint" />
            <mxPoint x="1849" y="1654.75" as="targetPoint" />
          </mxGeometry>
        </mxCell>
        <mxCell id="VsZHqk0auCdiCt8uDxmq-105" value="" style="endArrow=classic;html=1;rounded=0;" parent="1" edge="1">
          <mxGeometry width="50" height="50" relative="1" as="geometry">
            <mxPoint x="1850" y="1810" as="sourcePoint" />
            <mxPoint x="1849" y="1655.75" as="targetPoint" />
          </mxGeometry>
        </mxCell>
        <mxCell id="VsZHqk0auCdiCt8uDxmq-109" value="" style="edgeStyle=orthogonalEdgeStyle;rounded=0;orthogonalLoop=1;jettySize=auto;html=1;" parent="1" source="VsZHqk0auCdiCt8uDxmq-106" target="VsZHqk0auCdiCt8uDxmq-8" edge="1">
          <mxGeometry relative="1" as="geometry" />
        </mxCell>
        <mxCell id="VsZHqk0auCdiCt8uDxmq-106" value="&lt;div&gt;INPUT&lt;/div&gt;Jumlah motor" style="shape=parallelogram;perimeter=parallelogramPerimeter;whiteSpace=wrap;html=1;fixedSize=1;strokeWidth=2;" parent="1" vertex="1">
          <mxGeometry x="1273.5" y="814" width="120" height="60" as="geometry" />
        </mxCell>
        <mxCell id="VsZHqk0auCdiCt8uDxmq-107" value="" style="endArrow=classic;html=1;rounded=0;fontSize=12;startSize=8;endSize=8;curved=1;" parent="1" edge="1">
          <mxGeometry width="50" height="50" relative="1" as="geometry">
            <mxPoint x="1251.5" y="814.2899999999998" as="sourcePoint" />
            <mxPoint x="1291.5" y="813.9999999999999" as="targetPoint" />
          </mxGeometry>
        </mxCell>
        <mxCell id="VsZHqk0auCdiCt8uDxmq-113" value="" style="edgeStyle=orthogonalEdgeStyle;rounded=0;orthogonalLoop=1;jettySize=auto;html=1;" parent="1" source="VsZHqk0auCdiCt8uDxmq-110" target="zh43gVmN8LmoXnrAG-2s-195" edge="1">
          <mxGeometry relative="1" as="geometry" />
        </mxCell>
        <mxCell id="VsZHqk0auCdiCt8uDxmq-110" value="&lt;div&gt;INPUT&lt;/div&gt;Jumlah motor yang&lt;div&gt;ingin disewa&lt;/div&gt;" style="shape=parallelogram;perimeter=parallelogramPerimeter;whiteSpace=wrap;html=1;fixedSize=1;strokeWidth=2;" parent="1" vertex="1">
          <mxGeometry x="-80.5" y="1712.5" width="140" height="65" as="geometry" />
        </mxCell>
        <mxCell id="VsZHqk0auCdiCt8uDxmq-111" value="" style="endArrow=classic;html=1;rounded=0;fontSize=12;startSize=8;endSize=8;curved=1;" parent="1" edge="1">
          <mxGeometry width="50" height="50" relative="1" as="geometry">
            <mxPoint x="-105" y="1720" as="sourcePoint" />
            <mxPoint x="-65" y="1720" as="targetPoint" />
          </mxGeometry>
        </mxCell>
        <mxCell id="VsZHqk0auCdiCt8uDxmq-120" value="" style="edgeStyle=orthogonalEdgeStyle;rounded=0;orthogonalLoop=1;jettySize=auto;html=1;" parent="1" source="VsZHqk0auCdiCt8uDxmq-121" target="VsZHqk0auCdiCt8uDxmq-131" edge="1">
          <mxGeometry relative="1" as="geometry" />
        </mxCell>
        <mxCell id="VsZHqk0auCdiCt8uDxmq-121" value="&lt;div&gt;INPUT&lt;/div&gt;Motor yang ingin&amp;nbsp;&lt;div&gt;disewa&lt;/div&gt;" style="shape=parallelogram;perimeter=parallelogramPerimeter;whiteSpace=wrap;html=1;fixedSize=1;strokeWidth=2;" parent="1" vertex="1">
          <mxGeometry x="-1045.5" y="1280" width="140" height="65" as="geometry" />
        </mxCell>
        <mxCell id="VsZHqk0auCdiCt8uDxmq-122" value="" style="endArrow=classic;html=1;rounded=0;fontSize=12;startSize=8;endSize=8;curved=1;" parent="1" edge="1">
          <mxGeometry width="50" height="50" relative="1" as="geometry">
            <mxPoint x="-1070" y="1290" as="sourcePoint" />
            <mxPoint x="-1030" y="1290" as="targetPoint" />
          </mxGeometry>
        </mxCell>
        <mxCell id="VsZHqk0auCdiCt8uDxmq-123" value="" style="edgeStyle=orthogonalEdgeStyle;rounded=0;orthogonalLoop=1;jettySize=auto;html=1;" parent="1" source="VsZHqk0auCdiCt8uDxmq-124" target="VsZHqk0auCdiCt8uDxmq-127" edge="1">
          <mxGeometry relative="1" as="geometry" />
        </mxCell>
        <mxCell id="VsZHqk0auCdiCt8uDxmq-124" value="&lt;div&gt;INPUT&lt;/div&gt;Durasi sewa(hari)" style="shape=parallelogram;perimeter=parallelogramPerimeter;whiteSpace=wrap;html=1;fixedSize=1;strokeWidth=2;" parent="1" vertex="1">
          <mxGeometry x="-1045.5" y="1485" width="140" height="65" as="geometry" />
        </mxCell>
        <mxCell id="VsZHqk0auCdiCt8uDxmq-125" value="" style="endArrow=classic;html=1;rounded=0;fontSize=12;startSize=8;endSize=8;curved=1;" parent="1" edge="1">
          <mxGeometry width="50" height="50" relative="1" as="geometry">
            <mxPoint x="-1070" y="1492.5" as="sourcePoint" />
            <mxPoint x="-1030" y="1492.5" as="targetPoint" />
          </mxGeometry>
        </mxCell>
        <mxCell id="VsZHqk0auCdiCt8uDxmq-126" value="" style="edgeStyle=orthogonalEdgeStyle;rounded=0;orthogonalLoop=1;jettySize=auto;html=1;" parent="1" source="VsZHqk0auCdiCt8uDxmq-127" target="VsZHqk0auCdiCt8uDxmq-129" edge="1">
          <mxGeometry relative="1" as="geometry" />
        </mxCell>
        <mxCell id="VsZHqk0auCdiCt8uDxmq-127" value="&lt;div&gt;OUTPUT&lt;/div&gt;Berhasil disewa dan&lt;div&gt;struk sewa&lt;/div&gt;" style="shape=parallelogram;perimeter=parallelogramPerimeter;whiteSpace=wrap;html=1;fixedSize=1;strokeWidth=2;" parent="1" vertex="1">
          <mxGeometry x="-1045.5" y="1590" width="140" height="65" as="geometry" />
        </mxCell>
        <mxCell id="VsZHqk0auCdiCt8uDxmq-128" value="" style="endArrow=classic;html=1;rounded=0;fontSize=12;startSize=8;endSize=8;curved=1;" parent="1" edge="1">
          <mxGeometry width="50" height="50" relative="1" as="geometry">
            <mxPoint x="-931" y="1655.29" as="sourcePoint" />
            <mxPoint x="-891" y="1655.29" as="targetPoint" />
          </mxGeometry>
        </mxCell>
        <mxCell id="VsZHqk0auCdiCt8uDxmq-129" value="status motor menjadi tidak tersedia" style="whiteSpace=wrap;html=1;strokeWidth=2;" parent="1" vertex="1">
          <mxGeometry x="-1035.5" y="1710" width="120" height="60" as="geometry" />
        </mxCell>
        <mxCell id="VsZHqk0auCdiCt8uDxmq-130" value="" style="edgeStyle=orthogonalEdgeStyle;rounded=0;orthogonalLoop=1;jettySize=auto;html=1;" parent="1" source="VsZHqk0auCdiCt8uDxmq-131" target="VsZHqk0auCdiCt8uDxmq-124" edge="1">
          <mxGeometry relative="1" as="geometry" />
        </mxCell>
        <mxCell id="VsZHqk0auCdiCt8uDxmq-131" value="&lt;div&gt;INPUT&lt;/div&gt;Jumlah motor yang&lt;div&gt;ingin disewa&lt;/div&gt;" style="shape=parallelogram;perimeter=parallelogramPerimeter;whiteSpace=wrap;html=1;fixedSize=1;strokeWidth=2;" parent="1" vertex="1">
          <mxGeometry x="-1045.5" y="1385" width="140" height="65" as="geometry" />
        </mxCell>
        <mxCell id="VsZHqk0auCdiCt8uDxmq-132" value="" style="endArrow=classic;html=1;rounded=0;fontSize=12;startSize=8;endSize=8;curved=1;" parent="1" edge="1">
          <mxGeometry width="50" height="50" relative="1" as="geometry">
            <mxPoint x="-1070" y="1392.5" as="sourcePoint" />
            <mxPoint x="-1030" y="1392.5" as="targetPoint" />
          </mxGeometry>
        </mxCell>
        <mxCell id="VsZHqk0auCdiCt8uDxmq-148" value="" style="edgeStyle=orthogonalEdgeStyle;rounded=0;orthogonalLoop=1;jettySize=auto;html=1;entryX=0.5;entryY=0;entryDx=0;entryDy=0;" parent="1" source="VsZHqk0auCdiCt8uDxmq-145" target="lHBYunumNn8EPd7SKue_-1" edge="1">
          <mxGeometry relative="1" as="geometry">
            <mxPoint x="211" y="1800" as="targetPoint" />
          </mxGeometry>
        </mxCell>
        <mxCell id="VsZHqk0auCdiCt8uDxmq-145" value="&lt;div&gt;INPUT&lt;/div&gt;Jumlah motor yang&lt;div&gt;ingin dikembalikan&lt;/div&gt;" style="shape=parallelogram;perimeter=parallelogramPerimeter;whiteSpace=wrap;html=1;fixedSize=1;strokeWidth=2;" parent="1" vertex="1">
          <mxGeometry x="140.5" y="1700" width="140" height="65" as="geometry" />
        </mxCell>
        <mxCell id="VsZHqk0auCdiCt8uDxmq-146" value="" style="endArrow=classic;html=1;rounded=0;fontSize=12;startSize=8;endSize=8;curved=1;" parent="1" edge="1">
          <mxGeometry width="50" height="50" relative="1" as="geometry">
            <mxPoint x="117" y="1707.5" as="sourcePoint" />
            <mxPoint x="157" y="1707.5" as="targetPoint" />
          </mxGeometry>
        </mxCell>
        <mxCell id="VsZHqk0auCdiCt8uDxmq-167" value="" style="edgeStyle=orthogonalEdgeStyle;rounded=0;orthogonalLoop=1;jettySize=auto;html=1;entryX=1;entryY=0.5;entryDx=0;entryDy=0;entryPerimeter=0;" parent="1" source="VsZHqk0auCdiCt8uDxmq-164" target="VsZHqk0auCdiCt8uDxmq-84" edge="1">
          <mxGeometry relative="1" as="geometry" />
        </mxCell>
        <mxCell id="VsZHqk0auCdiCt8uDxmq-164" value="&lt;div&gt;INPUT&lt;/div&gt;Harga sewa baru" style="shape=parallelogram;perimeter=parallelogramPerimeter;whiteSpace=wrap;html=1;fixedSize=1;strokeWidth=2;" parent="1" vertex="1">
          <mxGeometry x="1295.5" y="1209" width="120" height="60" as="geometry" />
        </mxCell>
        <mxCell id="VsZHqk0auCdiCt8uDxmq-165" value="" style="endArrow=classic;html=1;rounded=0;fontSize=12;startSize=8;endSize=8;curved=1;" parent="1" edge="1">
          <mxGeometry width="50" height="50" relative="1" as="geometry">
            <mxPoint x="1275" y="1209" as="sourcePoint" />
            <mxPoint x="1315" y="1209" as="targetPoint" />
            <Array as="points" />
          </mxGeometry>
        </mxCell>
        <mxCell id="VsZHqk0auCdiCt8uDxmq-168" value="" style="endArrow=classic;html=1;rounded=0;" parent="1" edge="1">
          <mxGeometry width="50" height="50" relative="1" as="geometry">
            <mxPoint x="1549" y="1549" as="sourcePoint" />
            <mxPoint x="1849" y="1549" as="targetPoint" />
          </mxGeometry>
        </mxCell>
        <mxCell id="VsZHqk0auCdiCt8uDxmq-170" value="" style="endArrow=classic;html=1;rounded=0;" parent="1" edge="1">
          <mxGeometry width="50" height="50" relative="1" as="geometry">
            <mxPoint x="1850" y="1660" as="sourcePoint" />
            <mxPoint x="1849" y="1549" as="targetPoint" />
          </mxGeometry>
        </mxCell>
        <mxCell id="VsZHqk0auCdiCt8uDxmq-172" value="&lt;div&gt;OUTPUT&lt;/div&gt;Daftar user" style="shape=parallelogram;perimeter=parallelogramPerimeter;whiteSpace=wrap;html=1;fixedSize=1;strokeWidth=2;" parent="1" vertex="1">
          <mxGeometry x="1309" y="1620.75" width="150" height="70" as="geometry" />
        </mxCell>
        <mxCell id="VsZHqk0auCdiCt8uDxmq-173" value="" style="endArrow=classic;html=1;rounded=0;fontSize=12;startSize=8;endSize=8;curved=1;" parent="1" edge="1">
          <mxGeometry width="50" height="50" relative="1" as="geometry">
            <mxPoint x="1434" y="1690.42" as="sourcePoint" />
            <mxPoint x="1474" y="1690.42" as="targetPoint" />
          </mxGeometry>
        </mxCell>
        <mxCell id="VsZHqk0auCdiCt8uDxmq-176" value="" style="endArrow=classic;html=1;rounded=0;entryX=1;entryY=0.5;entryDx=0;entryDy=0;" parent="1" target="zh43gVmN8LmoXnrAG-2s-32" edge="1">
          <mxGeometry width="50" height="50" relative="1" as="geometry">
            <mxPoint x="1850" y="580" as="sourcePoint" />
            <mxPoint x="1051.7619999999997" y="568.54" as="targetPoint" />
          </mxGeometry>
        </mxCell>
        <mxCell id="VsZHqk0auCdiCt8uDxmq-177" value="" style="endArrow=classic;html=1;rounded=0;" parent="1" edge="1">
          <mxGeometry width="50" height="50" relative="1" as="geometry">
            <mxPoint x="1850" y="803" as="sourcePoint" />
            <mxPoint x="1850" y="733" as="targetPoint" />
          </mxGeometry>
        </mxCell>
        <mxCell id="VsZHqk0auCdiCt8uDxmq-178" value="" style="endArrow=classic;html=1;rounded=0;exitX=1;exitY=0.5;exitDx=0;exitDy=0;" parent="1" source="VsZHqk0auCdiCt8uDxmq-17" edge="1">
          <mxGeometry width="50" height="50" relative="1" as="geometry">
            <mxPoint x="1200" y="910" as="sourcePoint" />
            <mxPoint x="1850" y="910" as="targetPoint" />
          </mxGeometry>
        </mxCell>
        <mxCell id="VsZHqk0auCdiCt8uDxmq-179" value="" style="endArrow=classic;html=1;rounded=0;" parent="1" edge="1">
          <mxGeometry width="50" height="50" relative="1" as="geometry">
            <mxPoint x="1850" y="980" as="sourcePoint" />
            <mxPoint x="1850" y="910" as="targetPoint" />
          </mxGeometry>
        </mxCell>
        <mxCell id="VsZHqk0auCdiCt8uDxmq-180" value="" style="endArrow=classic;html=1;rounded=0;" parent="1" edge="1">
          <mxGeometry width="50" height="50" relative="1" as="geometry">
            <mxPoint x="960" y="1920" as="sourcePoint" />
            <mxPoint x="1920" y="1920" as="targetPoint" />
          </mxGeometry>
        </mxCell>
        <mxCell id="VsZHqk0auCdiCt8uDxmq-181" value="" style="endArrow=classic;html=1;rounded=0;" parent="1" edge="1">
          <mxGeometry width="50" height="50" relative="1" as="geometry">
            <mxPoint x="1920" y="1920" as="sourcePoint" />
            <mxPoint x="1920" y="210" as="targetPoint" />
          </mxGeometry>
        </mxCell>
        <mxCell id="VsZHqk0auCdiCt8uDxmq-184" value="" style="endArrow=classic;html=1;rounded=0;" parent="1" edge="1">
          <mxGeometry width="50" height="50" relative="1" as="geometry">
            <mxPoint x="1920" y="210" as="sourcePoint" />
            <mxPoint x="1156" y="210" as="targetPoint" />
          </mxGeometry>
        </mxCell>
        <mxCell id="VsZHqk0auCdiCt8uDxmq-185" value="" style="endArrow=classic;html=1;rounded=0;" parent="1" edge="1">
          <mxGeometry width="50" height="50" relative="1" as="geometry">
            <mxPoint x="1157" y="280" as="sourcePoint" />
            <mxPoint x="1157" y="210" as="targetPoint" />
          </mxGeometry>
        </mxCell>
        <mxCell id="VsZHqk0auCdiCt8uDxmq-192" value="" style="edgeStyle=orthogonalEdgeStyle;rounded=0;orthogonalLoop=1;jettySize=auto;html=1;" parent="1" source="VsZHqk0auCdiCt8uDxmq-186" target="VsZHqk0auCdiCt8uDxmq-191" edge="1">
          <mxGeometry relative="1" as="geometry" />
        </mxCell>
        <mxCell id="dYjNuDE8w0LizR0KFd_e-8" value="" style="edgeStyle=orthogonalEdgeStyle;rounded=0;orthogonalLoop=1;jettySize=auto;html=1;" parent="1" source="VsZHqk0auCdiCt8uDxmq-186" target="dYjNuDE8w0LizR0KFd_e-7" edge="1">
          <mxGeometry relative="1" as="geometry" />
        </mxCell>
        <mxCell id="VsZHqk0auCdiCt8uDxmq-186" value="3. EXIT" style="rhombus;whiteSpace=wrap;html=1;" parent="1" vertex="1">
          <mxGeometry x="-2000" y="361" width="80" height="80" as="geometry" />
        </mxCell>
        <mxCell id="VsZHqk0auCdiCt8uDxmq-190" value="" style="edgeStyle=orthogonalEdgeStyle;rounded=0;orthogonalLoop=1;jettySize=auto;html=1;" parent="1" source="VsZHqk0auCdiCt8uDxmq-189" target="zh43gVmN8LmoXnrAG-2s-2" edge="1">
          <mxGeometry relative="1" as="geometry" />
        </mxCell>
        <mxCell id="VsZHqk0auCdiCt8uDxmq-189" value="START" style="strokeWidth=2;html=1;shape=mxgraph.flowchart.terminator;whiteSpace=wrap;" parent="1" vertex="1">
          <mxGeometry x="359" y="40" width="100" height="60" as="geometry" />
        </mxCell>
        <mxCell id="VsZHqk0auCdiCt8uDxmq-191" value="END" style="strokeWidth=2;html=1;shape=mxgraph.flowchart.terminator;whiteSpace=wrap;" parent="1" vertex="1">
          <mxGeometry x="-2012" y="2275" width="100" height="60" as="geometry" />
        </mxCell>
        <mxCell id="VsZHqk0auCdiCt8uDxmq-193" value="" style="endArrow=classic;html=1;rounded=0;" parent="1" edge="1">
          <mxGeometry width="50" height="50" relative="1" as="geometry">
            <mxPoint x="1060" y="1336" as="sourcePoint" />
            <mxPoint x="1130" y="1336" as="targetPoint" />
          </mxGeometry>
        </mxCell>
        <mxCell id="dYjNuDE8w0LizR0KFd_e-1" value="True" style="text;html=1;align=center;verticalAlign=middle;resizable=0;points=[];autosize=1;strokeColor=none;fillColor=none;" parent="1" vertex="1">
          <mxGeometry x="1531" y="1130.17" width="50" height="30" as="geometry" />
        </mxCell>
        <mxCell id="dYjNuDE8w0LizR0KFd_e-2" value="True" style="text;html=1;align=center;verticalAlign=middle;resizable=0;points=[];autosize=1;strokeColor=none;fillColor=none;" parent="1" vertex="1">
          <mxGeometry x="245" y="448" width="50" height="30" as="geometry" />
        </mxCell>
        <mxCell id="dYjNuDE8w0LizR0KFd_e-3" value="False" style="text;html=1;align=center;verticalAlign=middle;resizable=0;points=[];autosize=1;strokeColor=none;fillColor=none;" parent="1" vertex="1">
          <mxGeometry x="120" y="370" width="50" height="30" as="geometry" />
        </mxCell>
        <mxCell id="dYjNuDE8w0LizR0KFd_e-4" value="True" style="text;html=1;align=center;verticalAlign=middle;resizable=0;points=[];autosize=1;strokeColor=none;fillColor=none;" parent="1" vertex="1">
          <mxGeometry x="955" y="458" width="50" height="30" as="geometry" />
        </mxCell>
        <mxCell id="dYjNuDE8w0LizR0KFd_e-5" value="False" style="text;html=1;align=center;verticalAlign=middle;resizable=0;points=[];autosize=1;strokeColor=none;fillColor=none;" parent="1" vertex="1">
          <mxGeometry x="1025" y="368" width="50" height="30" as="geometry" />
        </mxCell>
        <mxCell id="dYjNuDE8w0LizR0KFd_e-6" value="True" style="text;html=1;align=center;verticalAlign=middle;resizable=0;points=[];autosize=1;strokeColor=none;fillColor=none;" parent="1" vertex="1">
          <mxGeometry x="-1955" y="457.5" width="50" height="30" as="geometry" />
        </mxCell>
        <mxCell id="dYjNuDE8w0LizR0KFd_e-7" value="&lt;div&gt;OUTPUT&lt;/div&gt;Pilihan tidak valid" style="shape=parallelogram;perimeter=parallelogramPerimeter;whiteSpace=wrap;html=1;fixedSize=1;size=15;" parent="1" vertex="1">
          <mxGeometry x="-2020" y="180" width="120" height="60" as="geometry" />
        </mxCell>
        <mxCell id="dYjNuDE8w0LizR0KFd_e-9" value="" style="endArrow=classic;html=1;rounded=0;" parent="1" edge="1">
          <mxGeometry width="50" height="50" relative="1" as="geometry">
            <mxPoint x="-1925" y="240" as="sourcePoint" />
            <mxPoint x="-1875" y="240" as="targetPoint" />
          </mxGeometry>
        </mxCell>
        <mxCell id="dYjNuDE8w0LizR0KFd_e-11" value="False" style="text;html=1;align=center;verticalAlign=middle;resizable=0;points=[];autosize=1;strokeColor=none;fillColor=none;" parent="1" vertex="1">
          <mxGeometry x="-1962" y="312.5" width="50" height="30" as="geometry" />
        </mxCell>
        <mxCell id="dYjNuDE8w0LizR0KFd_e-12" value="" style="endArrow=classic;html=1;rounded=0;" parent="1" target="zh43gVmN8LmoXnrAG-2s-5" edge="1">
          <mxGeometry width="50" height="50" relative="1" as="geometry">
            <mxPoint x="410" y="240" as="sourcePoint" />
            <mxPoint x="460" y="190" as="targetPoint" />
          </mxGeometry>
        </mxCell>
        <mxCell id="dYjNuDE8w0LizR0KFd_e-13" value="" style="endArrow=classic;html=1;rounded=0;exitX=1;exitY=0.5;exitDx=0;exitDy=0;" parent="1" source="dYjNuDE8w0LizR0KFd_e-7" edge="1">
          <mxGeometry width="50" height="50" relative="1" as="geometry">
            <mxPoint x="-1711.5" y="210" as="sourcePoint" />
            <mxPoint x="-260" y="210" as="targetPoint" />
          </mxGeometry>
        </mxCell>
        <mxCell id="dYjNuDE8w0LizR0KFd_e-16" value="" style="edgeStyle=orthogonalEdgeStyle;rounded=0;orthogonalLoop=1;jettySize=auto;html=1;" parent="1" source="dYjNuDE8w0LizR0KFd_e-14" target="VsZHqk0auCdiCt8uDxmq-106" edge="1">
          <mxGeometry relative="1" as="geometry" />
        </mxCell>
        <mxCell id="dYjNuDE8w0LizR0KFd_e-14" value="Jenis motor&lt;div&gt;sudah ada&lt;/div&gt;" style="rhombus;whiteSpace=wrap;html=1;strokeWidth=2;" parent="1" vertex="1">
          <mxGeometry x="1283.5" y="686.75" width="100" height="91.5" as="geometry" />
        </mxCell>
        <mxCell id="dYjNuDE8w0LizR0KFd_e-17" value="True" style="text;html=1;align=center;verticalAlign=middle;resizable=0;points=[];autosize=1;strokeColor=none;fillColor=none;" parent="1" vertex="1">
          <mxGeometry x="1385" y="698" width="50" height="30" as="geometry" />
        </mxCell>
        <mxCell id="dYjNuDE8w0LizR0KFd_e-18" value="False" style="text;html=1;align=center;verticalAlign=middle;resizable=0;points=[];autosize=1;strokeColor=none;fillColor=none;" parent="1" vertex="1">
          <mxGeometry x="1335" y="768" width="50" height="30" as="geometry" />
        </mxCell>
        <mxCell id="dYjNuDE8w0LizR0KFd_e-19" value="" style="endArrow=classic;html=1;rounded=0;" parent="1" edge="1">
          <mxGeometry width="50" height="50" relative="1" as="geometry">
            <mxPoint x="1740" y="843.44" as="sourcePoint" />
            <mxPoint x="1850" y="843.44" as="targetPoint" />
          </mxGeometry>
        </mxCell>
        <mxCell id="dYjNuDE8w0LizR0KFd_e-20" value="" style="endArrow=classic;html=1;rounded=0;" parent="1" edge="1">
          <mxGeometry width="50" height="50" relative="1" as="geometry">
            <mxPoint x="1850" y="893" as="sourcePoint" />
            <mxPoint x="1850" y="843" as="targetPoint" />
          </mxGeometry>
        </mxCell>
        <mxCell id="dYjNuDE8w0LizR0KFd_e-21" value="" style="endArrow=classic;html=1;rounded=0;fontSize=12;startSize=8;endSize=8;curved=1;" parent="1" edge="1">
          <mxGeometry width="50" height="50" relative="1" as="geometry">
            <mxPoint x="1027.5" y="650.29" as="sourcePoint" />
            <mxPoint x="1067.5" y="650" as="targetPoint" />
            <Array as="points">
              <mxPoint x="1047.5" y="650" />
            </Array>
          </mxGeometry>
        </mxCell>
        <mxCell id="dYjNuDE8w0LizR0KFd_e-22" value="False" style="text;html=1;align=center;verticalAlign=middle;resizable=0;points=[];autosize=1;strokeColor=none;fillColor=none;" parent="1" vertex="1">
          <mxGeometry x="295" y="1031.5" width="50" height="30" as="geometry" />
        </mxCell>
        <mxCell id="dYjNuDE8w0LizR0KFd_e-23" value="&lt;div&gt;OUTPUT&lt;/div&gt;&lt;div&gt;Daftar motor beserta&lt;div&gt;harga sewa/hari dan&amp;nbsp;&lt;/div&gt;&lt;div&gt;status tersedia atau&amp;nbsp;&lt;/div&gt;&lt;div&gt;t&lt;span style=&quot;background-color: initial;&quot;&gt;idak&lt;/span&gt;&lt;/div&gt;&lt;/div&gt;" style="shape=parallelogram;perimeter=parallelogramPerimeter;whiteSpace=wrap;html=1;fixedSize=1;strokeWidth=2;" parent="1" vertex="1">
          <mxGeometry x="-85" y="1497.61" width="150" height="81.5" as="geometry" />
        </mxCell>
        <mxCell id="dYjNuDE8w0LizR0KFd_e-24" value="" style="endArrow=classic;html=1;rounded=0;fontSize=12;startSize=8;endSize=8;curved=1;" parent="1" edge="1">
          <mxGeometry width="50" height="50" relative="1" as="geometry">
            <mxPoint x="41" y="1578.4599999999998" as="sourcePoint" />
            <mxPoint x="81" y="1578.4599999999998" as="targetPoint" />
          </mxGeometry>
        </mxCell>
        <mxCell id="dYjNuDE8w0LizR0KFd_e-26" value="&lt;div&gt;OUTPUT&lt;/div&gt;&lt;div&gt;Daftar motor beserta&lt;div&gt;harga sewa/hari dan&amp;nbsp;&lt;/div&gt;&lt;div&gt;status tersedia atau&amp;nbsp;&lt;/div&gt;&lt;div&gt;t&lt;span style=&quot;background-color: initial;&quot;&gt;idak&lt;/span&gt;&lt;/div&gt;&lt;/div&gt;" style="shape=parallelogram;perimeter=parallelogramPerimeter;whiteSpace=wrap;html=1;fixedSize=1;strokeWidth=2;" parent="1" vertex="1">
          <mxGeometry x="135" y="1498.5" width="150" height="81.5" as="geometry" />
        </mxCell>
        <mxCell id="dYjNuDE8w0LizR0KFd_e-27" value="" style="endArrow=classic;html=1;rounded=0;fontSize=12;startSize=8;endSize=8;curved=1;" parent="1" edge="1">
          <mxGeometry width="50" height="50" relative="1" as="geometry">
            <mxPoint x="261" y="1579.35" as="sourcePoint" />
            <mxPoint x="301" y="1579.35" as="targetPoint" />
          </mxGeometry>
        </mxCell>
        <mxCell id="dYjNuDE8w0LizR0KFd_e-29" value="" style="endArrow=classic;html=1;rounded=0;" parent="1" edge="1">
          <mxGeometry width="50" height="50" relative="1" as="geometry">
            <mxPoint x="-10" y="2109" as="sourcePoint" />
            <mxPoint x="-10" y="2143" as="targetPoint" />
          </mxGeometry>
        </mxCell>
        <mxCell id="dYjNuDE8w0LizR0KFd_e-31" value="&lt;div&gt;OUTPUT&lt;/div&gt;Daftar motor beserta&lt;div&gt;harga sewa/hari dan&amp;nbsp;&lt;/div&gt;&lt;div&gt;status tersedia atau&amp;nbsp;&lt;/div&gt;&lt;div&gt;t&lt;span style=&quot;background-color: initial;&quot;&gt;idak&lt;/span&gt;&lt;/div&gt;" style="shape=parallelogram;perimeter=parallelogramPerimeter;whiteSpace=wrap;html=1;fixedSize=1;strokeWidth=2;" parent="1" vertex="1">
          <mxGeometry x="-1050.5" y="1172" width="150" height="77" as="geometry" />
        </mxCell>
        <mxCell id="dYjNuDE8w0LizR0KFd_e-32" value="" style="endArrow=classic;html=1;rounded=0;fontSize=12;startSize=8;endSize=8;curved=1;" parent="1" edge="1">
          <mxGeometry width="50" height="50" relative="1" as="geometry">
            <mxPoint x="-920.5" y="1249" as="sourcePoint" />
            <mxPoint x="-880.5" y="1249" as="targetPoint" />
          </mxGeometry>
        </mxCell>
        <mxCell id="dYjNuDE8w0LizR0KFd_e-34" value="&lt;div&gt;OUTPUT&lt;/div&gt;Daftar motor beserta&lt;div&gt;harga sewa/hari dan&amp;nbsp;&lt;/div&gt;&lt;div&gt;status tersedia atau&amp;nbsp;&lt;/div&gt;&lt;div&gt;t&lt;span style=&quot;background-color: initial;&quot;&gt;idak&lt;/span&gt;&lt;/div&gt;" style="shape=parallelogram;perimeter=parallelogramPerimeter;whiteSpace=wrap;html=1;fixedSize=1;strokeWidth=2;" parent="1" vertex="1">
          <mxGeometry x="-1339.62" y="1171.46" width="150" height="77" as="geometry" />
        </mxCell>
        <mxCell id="dYjNuDE8w0LizR0KFd_e-35" value="" style="endArrow=classic;html=1;rounded=0;fontSize=12;startSize=8;endSize=8;curved=1;" parent="1" edge="1">
          <mxGeometry width="50" height="50" relative="1" as="geometry">
            <mxPoint x="-1209.62" y="1248.46" as="sourcePoint" />
            <mxPoint x="-1169.62" y="1248.46" as="targetPoint" />
          </mxGeometry>
        </mxCell>
        <mxCell id="IRif-jqI3bzSRs5siGLv-1" value="" style="edgeStyle=none;curved=1;rounded=0;orthogonalLoop=1;jettySize=auto;html=1;fontSize=12;startSize=8;endSize=8;" parent="1" source="IRif-jqI3bzSRs5siGLv-2" target="IRif-jqI3bzSRs5siGLv-3" edge="1">
          <mxGeometry relative="1" as="geometry" />
        </mxCell>
        <mxCell id="IRif-jqI3bzSRs5siGLv-9" value="" style="edgeStyle=orthogonalEdgeStyle;rounded=0;orthogonalLoop=1;jettySize=auto;html=1;" parent="1" source="IRif-jqI3bzSRs5siGLv-2" target="zh43gVmN8LmoXnrAG-2s-172" edge="1">
          <mxGeometry relative="1" as="geometry" />
        </mxCell>
        <mxCell id="IRif-jqI3bzSRs5siGLv-2" value="4. Lihat&amp;nbsp;&lt;div&gt;riwayat&lt;div&gt;sewa&lt;/div&gt;&lt;/div&gt;" style="rhombus;whiteSpace=wrap;html=1;strokeWidth=2;" parent="1" vertex="1">
          <mxGeometry x="365" y="1353.5" width="90" height="95" as="geometry" />
        </mxCell>
        <mxCell id="IRif-jqI3bzSRs5siGLv-3" value="&lt;div&gt;OUTPUT&lt;/div&gt;&lt;div&gt;Daftar riwayat sewa&lt;/div&gt;" style="shape=parallelogram;perimeter=parallelogramPerimeter;whiteSpace=wrap;html=1;fixedSize=1;strokeWidth=2;" parent="1" vertex="1">
          <mxGeometry x="340" y="1497.2500000000002" width="140" height="70" as="geometry" />
        </mxCell>
        <mxCell id="IRif-jqI3bzSRs5siGLv-4" value="" style="endArrow=classic;html=1;rounded=0;fontSize=12;startSize=8;endSize=8;curved=1;" parent="1" edge="1">
          <mxGeometry width="50" height="50" relative="1" as="geometry">
            <mxPoint x="455" y="1567.2500000000002" as="sourcePoint" />
            <mxPoint x="495" y="1567.2500000000002" as="targetPoint" />
          </mxGeometry>
        </mxCell>
        <mxCell id="IRif-jqI3bzSRs5siGLv-5" value="True" style="text;html=1;align=center;verticalAlign=middle;resizable=0;points=[];autosize=1;strokeColor=none;fillColor=none;fontSize=16;" parent="1" vertex="1">
          <mxGeometry x="405" y="1452.2500000000002" width="60" height="30" as="geometry" />
        </mxCell>
        <mxCell id="IRif-jqI3bzSRs5siGLv-11" value="False" style="text;html=1;align=center;verticalAlign=middle;resizable=0;points=[];autosize=1;strokeColor=none;fillColor=none;" parent="1" vertex="1">
          <mxGeometry x="455" y="1360.75" width="50" height="30" as="geometry" />
        </mxCell>
        <mxCell id="IRif-jqI3bzSRs5siGLv-12" value="False" style="text;html=1;align=center;verticalAlign=middle;resizable=0;points=[];autosize=1;strokeColor=none;fillColor=none;" parent="1" vertex="1">
          <mxGeometry x="255" y="1368" width="50" height="30" as="geometry" />
        </mxCell>
        <mxCell id="IRif-jqI3bzSRs5siGLv-13" value="" style="endArrow=classic;html=1;rounded=0;" parent="1" edge="1">
          <mxGeometry width="50" height="50" relative="1" as="geometry">
            <mxPoint x="410" y="1565" as="sourcePoint" />
            <mxPoint x="410" y="2140" as="targetPoint" />
          </mxGeometry>
        </mxCell>
        <mxCell id="IRif-jqI3bzSRs5siGLv-21" value="" style="edgeStyle=none;curved=1;rounded=0;orthogonalLoop=1;jettySize=auto;html=1;fontSize=12;startSize=8;endSize=8;" parent="1" source="IRif-jqI3bzSRs5siGLv-22" target="IRif-jqI3bzSRs5siGLv-23" edge="1">
          <mxGeometry relative="1" as="geometry" />
        </mxCell>
        <mxCell id="IRif-jqI3bzSRs5siGLv-22" value="4. Lihat&amp;nbsp;&lt;div&gt;riwayat&lt;div&gt;sewa&lt;/div&gt;&lt;/div&gt;" style="rhombus;whiteSpace=wrap;html=1;strokeWidth=2;" parent="1" vertex="1">
          <mxGeometry x="-1557" y="1030" width="90" height="95" as="geometry" />
        </mxCell>
        <mxCell id="IRif-jqI3bzSRs5siGLv-23" value="&lt;div&gt;OUTPUT&lt;/div&gt;&lt;div&gt;Daftar riwayat sewa&lt;/div&gt;" style="shape=parallelogram;perimeter=parallelogramPerimeter;whiteSpace=wrap;html=1;fixedSize=1;strokeWidth=2;" parent="1" vertex="1">
          <mxGeometry x="-1582" y="1173.7500000000002" width="140" height="70" as="geometry" />
        </mxCell>
        <mxCell id="IRif-jqI3bzSRs5siGLv-24" value="" style="endArrow=classic;html=1;rounded=0;fontSize=12;startSize=8;endSize=8;curved=1;" parent="1" edge="1">
          <mxGeometry width="50" height="50" relative="1" as="geometry">
            <mxPoint x="-1467" y="1243.7500000000002" as="sourcePoint" />
            <mxPoint x="-1427" y="1243.7500000000002" as="targetPoint" />
          </mxGeometry>
        </mxCell>
        <mxCell id="IRif-jqI3bzSRs5siGLv-25" value="True" style="text;html=1;align=center;verticalAlign=middle;resizable=0;points=[];autosize=1;strokeColor=none;fillColor=none;fontSize=16;" parent="1" vertex="1">
          <mxGeometry x="-1517" y="1128.7500000000002" width="60" height="30" as="geometry" />
        </mxCell>
        <mxCell id="IRif-jqI3bzSRs5siGLv-27" value="" style="endArrow=classic;html=1;rounded=0;exitX=0.436;exitY=0.996;exitDx=0;exitDy=0;exitPerimeter=0;" parent="1" source="IRif-jqI3bzSRs5siGLv-23" edge="1">
          <mxGeometry width="50" height="50" relative="1" as="geometry">
            <mxPoint x="-1520" y="1250" as="sourcePoint" />
            <mxPoint x="-1520" y="1800.75" as="targetPoint" />
          </mxGeometry>
        </mxCell>
        <mxCell id="IRif-jqI3bzSRs5siGLv-28" value="" style="endArrow=classic;html=1;rounded=0;exitX=0;exitY=0.5;exitDx=0;exitDy=0;entryX=1;entryY=0.5;entryDx=0;entryDy=0;" parent="1" source="zh43gVmN8LmoXnrAG-2s-328" target="IRif-jqI3bzSRs5siGLv-22" edge="1">
          <mxGeometry width="50" height="50" relative="1" as="geometry">
            <mxPoint x="-1520" y="1130" as="sourcePoint" />
            <mxPoint x="-1470" y="1080" as="targetPoint" />
          </mxGeometry>
        </mxCell>
        <mxCell id="IRif-jqI3bzSRs5siGLv-29" value="" style="endArrow=classic;html=1;rounded=0;entryX=1;entryY=0.5;entryDx=0;entryDy=0;exitX=0;exitY=0.5;exitDx=0;exitDy=0;" parent="1" source="IRif-jqI3bzSRs5siGLv-22" target="zh43gVmN8LmoXnrAG-2s-343" edge="1">
          <mxGeometry width="50" height="50" relative="1" as="geometry">
            <mxPoint x="-1560" y="1080" as="sourcePoint" />
            <mxPoint x="-1510" y="1030" as="targetPoint" />
          </mxGeometry>
        </mxCell>
        <mxCell id="IRif-jqI3bzSRs5siGLv-30" value="False" style="text;html=1;align=center;verticalAlign=middle;resizable=0;points=[];autosize=1;strokeColor=none;fillColor=none;" parent="1" vertex="1">
          <mxGeometry x="-1415" y="1039.23" width="50" height="30" as="geometry" />
        </mxCell>
        <mxCell id="IRif-jqI3bzSRs5siGLv-31" value="False" style="text;strokeColor=none;align=center;fillColor=none;html=1;verticalAlign=middle;whiteSpace=wrap;rounded=0;" parent="1" vertex="1">
          <mxGeometry x="-1630" y="1040" width="60" height="30" as="geometry" />
        </mxCell>
        <mxCell id="Iqf_ry9vDwqk4CLX19zl-1" value="" style="endArrow=classic;html=1;rounded=0;entryX=0;entryY=0.5;entryDx=0;entryDy=0;" parent="1" target="zh43gVmN8LmoXnrAG-2s-45" edge="1">
          <mxGeometry width="50" height="50" relative="1" as="geometry">
            <mxPoint x="-60" y="540" as="sourcePoint" />
            <mxPoint x="-10" y="490" as="targetPoint" />
          </mxGeometry>
        </mxCell>
        <mxCell id="lHBYunumNn8EPd7SKue_-1" value="&lt;div&gt;INPUT&lt;/div&gt;Durasi sewa(hari)" style="shape=parallelogram;perimeter=parallelogramPerimeter;whiteSpace=wrap;html=1;fixedSize=1;strokeWidth=2;" vertex="1" parent="1">
          <mxGeometry x="140.75" y="1790" width="140" height="65" as="geometry" />
        </mxCell>
        <mxCell id="lHBYunumNn8EPd7SKue_-2" value="" style="endArrow=classic;html=1;rounded=0;fontSize=12;startSize=8;endSize=8;curved=1;" edge="1" parent="1">
          <mxGeometry width="50" height="50" relative="1" as="geometry">
            <mxPoint x="117.25" y="1797.5" as="sourcePoint" />
            <mxPoint x="157.25" y="1797.5" as="targetPoint" />
          </mxGeometry>
        </mxCell>
        <mxCell id="lHBYunumNn8EPd7SKue_-3" value="&lt;div&gt;INPUT&lt;/div&gt;Harga sewa" style="shape=parallelogram;perimeter=parallelogramPerimeter;whiteSpace=wrap;html=1;fixedSize=1;strokeWidth=2;" vertex="1" parent="1">
          <mxGeometry x="140.5" y="1880" width="140" height="65" as="geometry" />
        </mxCell>
        <mxCell id="lHBYunumNn8EPd7SKue_-4" value="" style="endArrow=classic;html=1;rounded=0;fontSize=12;startSize=8;endSize=8;curved=1;" edge="1" parent="1">
          <mxGeometry width="50" height="50" relative="1" as="geometry">
            <mxPoint x="117" y="1887.5" as="sourcePoint" />
            <mxPoint x="157" y="1887.5" as="targetPoint" />
          </mxGeometry>
        </mxCell>
        <mxCell id="lHBYunumNn8EPd7SKue_-5" value="" style="endArrow=classic;html=1;rounded=0;" edge="1" parent="1">
          <mxGeometry width="50" height="50" relative="1" as="geometry">
            <mxPoint x="486" y="2143" as="sourcePoint" />
            <mxPoint x="411" y="2143" as="targetPoint" />
          </mxGeometry>
        </mxCell>
        <mxCell id="lHBYunumNn8EPd7SKue_-6" value="" style="endArrow=classic;html=1;rounded=0;entryX=0.5;entryY=0;entryDx=0;entryDy=0;exitX=0.5;exitY=1;exitDx=0;exitDy=0;" edge="1" parent="1" source="lHBYunumNn8EPd7SKue_-1" target="lHBYunumNn8EPd7SKue_-3">
          <mxGeometry width="50" height="50" relative="1" as="geometry">
            <mxPoint x="210" y="1860" as="sourcePoint" />
            <mxPoint x="260" y="1810" as="targetPoint" />
          </mxGeometry>
        </mxCell>
        <mxCell id="lHBYunumNn8EPd7SKue_-7" value="" style="endArrow=classic;html=1;rounded=0;entryX=0.5;entryY=0;entryDx=0;entryDy=0;exitX=0.5;exitY=1;exitDx=0;exitDy=0;" edge="1" parent="1">
          <mxGeometry width="50" height="50" relative="1" as="geometry">
            <mxPoint x="210.35" y="1947.5" as="sourcePoint" />
            <mxPoint x="210.35" y="1972.5" as="targetPoint" />
          </mxGeometry>
        </mxCell>
        <mxCell id="lHBYunumNn8EPd7SKue_-24" value="" style="edgeStyle=orthogonalEdgeStyle;rounded=0;orthogonalLoop=1;jettySize=auto;html=1;" edge="1" parent="1" source="lHBYunumNn8EPd7SKue_-25" target="lHBYunumNn8EPd7SKue_-32">
          <mxGeometry relative="1" as="geometry" />
        </mxCell>
        <mxCell id="lHBYunumNn8EPd7SKue_-25" value="&lt;div&gt;INPUT&lt;/div&gt;Motor yang&amp;nbsp;&lt;span style=&quot;background-color: initial;&quot;&gt;disewa&lt;/span&gt;" style="shape=parallelogram;perimeter=parallelogramPerimeter;whiteSpace=wrap;html=1;fixedSize=1;strokeWidth=2;" vertex="1" parent="1">
          <mxGeometry x="-1328.87" y="1269" width="140" height="65" as="geometry" />
        </mxCell>
        <mxCell id="lHBYunumNn8EPd7SKue_-26" value="" style="endArrow=classic;html=1;rounded=0;fontSize=12;startSize=8;endSize=8;curved=1;" edge="1" parent="1">
          <mxGeometry width="50" height="50" relative="1" as="geometry">
            <mxPoint x="-1354.62" y="1279" as="sourcePoint" />
            <mxPoint x="-1314.62" y="1279" as="targetPoint" />
          </mxGeometry>
        </mxCell>
        <mxCell id="lHBYunumNn8EPd7SKue_-27" value="" style="edgeStyle=orthogonalEdgeStyle;rounded=0;orthogonalLoop=1;jettySize=auto;html=1;" edge="1" parent="1" source="lHBYunumNn8EPd7SKue_-28" target="lHBYunumNn8EPd7SKue_-30">
          <mxGeometry relative="1" as="geometry" />
        </mxCell>
        <mxCell id="lHBYunumNn8EPd7SKue_-28" value="&lt;div&gt;OUTPUT&lt;/div&gt;Berhasil&amp;nbsp;&lt;div&gt;dikembalikan&lt;/div&gt;" style="shape=parallelogram;perimeter=parallelogramPerimeter;whiteSpace=wrap;html=1;fixedSize=1;strokeWidth=2;" vertex="1" parent="1">
          <mxGeometry x="-1329.12" y="1635.5" width="140" height="65" as="geometry" />
        </mxCell>
        <mxCell id="lHBYunumNn8EPd7SKue_-29" value="" style="endArrow=classic;html=1;rounded=0;fontSize=12;startSize=8;endSize=8;curved=1;" edge="1" parent="1">
          <mxGeometry width="50" height="50" relative="1" as="geometry">
            <mxPoint x="-1214.62" y="1700.79" as="sourcePoint" />
            <mxPoint x="-1174.62" y="1700.79" as="targetPoint" />
          </mxGeometry>
        </mxCell>
        <mxCell id="lHBYunumNn8EPd7SKue_-30" value="status motor menjadi tersedia" style="whiteSpace=wrap;html=1;strokeWidth=2;" vertex="1" parent="1">
          <mxGeometry x="-1318.87" y="1723" width="120" height="60" as="geometry" />
        </mxCell>
        <mxCell id="lHBYunumNn8EPd7SKue_-31" value="" style="edgeStyle=orthogonalEdgeStyle;rounded=0;orthogonalLoop=1;jettySize=auto;html=1;entryX=0.5;entryY=0;entryDx=0;entryDy=0;" edge="1" parent="1" source="lHBYunumNn8EPd7SKue_-32" target="lHBYunumNn8EPd7SKue_-34">
          <mxGeometry relative="1" as="geometry">
            <mxPoint x="-1258.62" y="1463" as="targetPoint" />
          </mxGeometry>
        </mxCell>
        <mxCell id="lHBYunumNn8EPd7SKue_-32" value="&lt;div&gt;INPUT&lt;/div&gt;Jumlah motor yang&lt;div&gt;ingin dikembalikan&lt;/div&gt;" style="shape=parallelogram;perimeter=parallelogramPerimeter;whiteSpace=wrap;html=1;fixedSize=1;strokeWidth=2;" vertex="1" parent="1">
          <mxGeometry x="-1329.12" y="1363" width="140" height="65" as="geometry" />
        </mxCell>
        <mxCell id="lHBYunumNn8EPd7SKue_-33" value="" style="endArrow=classic;html=1;rounded=0;fontSize=12;startSize=8;endSize=8;curved=1;" edge="1" parent="1">
          <mxGeometry width="50" height="50" relative="1" as="geometry">
            <mxPoint x="-1352.62" y="1370.5" as="sourcePoint" />
            <mxPoint x="-1312.62" y="1370.5" as="targetPoint" />
          </mxGeometry>
        </mxCell>
        <mxCell id="lHBYunumNn8EPd7SKue_-34" value="&lt;div&gt;INPUT&lt;/div&gt;Durasi sewa(hari)" style="shape=parallelogram;perimeter=parallelogramPerimeter;whiteSpace=wrap;html=1;fixedSize=1;strokeWidth=2;" vertex="1" parent="1">
          <mxGeometry x="-1328.87" y="1453" width="140" height="65" as="geometry" />
        </mxCell>
        <mxCell id="lHBYunumNn8EPd7SKue_-35" value="" style="endArrow=classic;html=1;rounded=0;fontSize=12;startSize=8;endSize=8;curved=1;" edge="1" parent="1">
          <mxGeometry width="50" height="50" relative="1" as="geometry">
            <mxPoint x="-1352.37" y="1460.5" as="sourcePoint" />
            <mxPoint x="-1312.37" y="1460.5" as="targetPoint" />
          </mxGeometry>
        </mxCell>
        <mxCell id="lHBYunumNn8EPd7SKue_-36" value="&lt;div&gt;INPUT&lt;/div&gt;Harga sewa" style="shape=parallelogram;perimeter=parallelogramPerimeter;whiteSpace=wrap;html=1;fixedSize=1;strokeWidth=2;" vertex="1" parent="1">
          <mxGeometry x="-1329.12" y="1543" width="140" height="65" as="geometry" />
        </mxCell>
        <mxCell id="lHBYunumNn8EPd7SKue_-37" value="" style="endArrow=classic;html=1;rounded=0;fontSize=12;startSize=8;endSize=8;curved=1;" edge="1" parent="1">
          <mxGeometry width="50" height="50" relative="1" as="geometry">
            <mxPoint x="-1352.62" y="1550.5" as="sourcePoint" />
            <mxPoint x="-1312.62" y="1550.5" as="targetPoint" />
          </mxGeometry>
        </mxCell>
        <mxCell id="lHBYunumNn8EPd7SKue_-38" value="" style="endArrow=classic;html=1;rounded=0;entryX=0.5;entryY=0;entryDx=0;entryDy=0;exitX=0.5;exitY=1;exitDx=0;exitDy=0;" edge="1" parent="1" source="lHBYunumNn8EPd7SKue_-34" target="lHBYunumNn8EPd7SKue_-36">
          <mxGeometry width="50" height="50" relative="1" as="geometry">
            <mxPoint x="-1259.62" y="1523" as="sourcePoint" />
            <mxPoint x="-1209.62" y="1473" as="targetPoint" />
          </mxGeometry>
        </mxCell>
        <mxCell id="lHBYunumNn8EPd7SKue_-39" value="" style="endArrow=classic;html=1;rounded=0;entryX=0.5;entryY=0;entryDx=0;entryDy=0;exitX=0.5;exitY=1;exitDx=0;exitDy=0;" edge="1" parent="1">
          <mxGeometry width="50" height="50" relative="1" as="geometry">
            <mxPoint x="-1259.27" y="1610.5" as="sourcePoint" />
            <mxPoint x="-1259.27" y="1635.5" as="targetPoint" />
          </mxGeometry>
        </mxCell>
        <mxCell id="lHBYunumNn8EPd7SKue_-41" value="" style="endArrow=classic;html=1;rounded=0;" edge="1" parent="1">
          <mxGeometry width="50" height="50" relative="1" as="geometry">
            <mxPoint x="-1260" y="1780" as="sourcePoint" />
            <mxPoint x="-1260" y="1800" as="targetPoint" />
          </mxGeometry>
        </mxCell>
        <mxCell id="lHBYunumNn8EPd7SKue_-42" value="" style="endArrow=classic;html=1;rounded=0;" edge="1" parent="1">
          <mxGeometry width="50" height="50" relative="1" as="geometry">
            <mxPoint x="-1320" y="1800" as="sourcePoint" />
            <mxPoint x="-1260" y="1800" as="targetPoint" />
          </mxGeometry>
        </mxCell>
        <mxCell id="lHBYunumNn8EPd7SKue_-43" value="" style="endArrow=classic;html=1;rounded=0;" edge="1" parent="1">
          <mxGeometry width="50" height="50" relative="1" as="geometry">
            <mxPoint x="-1580" y="1800" as="sourcePoint" />
            <mxPoint x="-1520" y="1800" as="targetPoint" />
          </mxGeometry>
        </mxCell>
      </root>
    </mxGraphModel>
  </diagram>
</mxfile>
